<?xml version="1.0" encoding="utf-8"?>
<!-- Generator: Adobe Illustrator 18.0.0, SVG Export Plug-In . SVG Version: 6.00 Build 0)  -->
<!DOCTYPE svg PUBLIC "-//W3C//DTD SVG 1.1//EN" "http://www.w3.org/Graphics/SVG/1.1/DTD/svg11.dtd">
<svg version="1.1" id="Layer_1" xmlns="http://www.w3.org/2000/svg" xmlns:xlink="http://www.w3.org/1999/xlink" x="0px" y="0px"
	 viewBox="234.8 12.7 864.1 879.1" enable-background="new 234.8 12.7 864.1 879.1" xml:space="preserve">
<polygon points="341.4,422.1 342.1,146.1 987.9,145.2 987.9,560.4 849,560.4 849,420.9 959.1,421.4 959.1,174.9 370.2,174.9 
	370.2,290 398.9,290 398.9,422.5 "/>
<polygon points="932.6,371.8 932.6,233.3 793.1,233.3 793.7,749.9 719.9,750.8 719.9,232.3 653.7,232.3 653.7,780.5 823.1,779.6 
	822.5,371.8 "/>
<polygon points="625.3,779.6 341.1,780.9 341.1,641.5 479.6,641.5 479.6,750.8 625.3,750.8 "/>
<polygon points="625.8,232.6 625.8,263.2 480.2,263.2 481.1,421.5 422.5,421.5 422.5,290 451.4,290 451.4,232.3 "/>
<rect x="594.8" y="289.9" width="28.7" height="83.5"/>
<rect x="594.9" y="404.8" width="28.7" height="83.5"/>
<rect x="594.9" y="523.4" width="28.7" height="83.5"/>
<rect x="594.9" y="640.2" width="28.7" height="83.5"/>
<polygon fill="#FFFFFF" points="861,284.9 861,295.9 850,295.9 850,303.2 861,303.2 861,313.9 868,313.9 868,302.9 878.7,302.9 
	878.7,295.9 868,295.9 868,284.9 "/>
<polygon fill="#FFFFFF" points="901.9,489.4 901.9,496.7 930.6,496.4 930.6,489.4 "/>
</svg>
