<?xml version="1.0" encoding="utf-8"?>
<!-- Generator: Adobe Illustrator 18.0.0, SVG Export Plug-In . SVG Version: 6.00 Build 0)  -->
<!DOCTYPE svg PUBLIC "-//W3C//DTD SVG 1.1//EN" "http://www.w3.org/Graphics/SVG/1.1/DTD/svg11.dtd">
<svg version="1.1" id="Layer_1" xmlns="http://www.w3.org/2000/svg" xmlns:xlink="http://www.w3.org/1999/xlink" x="0px" y="0px"
	 viewBox="0 0 269.6 265" enable-background="new 0 0 269.6 265" xml:space="preserve">
<g id="Layer_1_1_">
	<path d="M184,196.4L184,196.4c-3.1-1-5.8-2.9-7.5-5.1c-1.5-2.1-1.9-4.1-1.4-6c0.6-1.8-0.5-3.8-2.2-4.3c-1.8-0.6-3.8,0.5-4.3,2.2
		c-1.3,3.9-0.5,8.3,2.3,12.1c2.5,3.5,6.4,6.3,10.9,7.8l0,0c6,1.9,10.1,7.1,8.8,11.2c-0.6,1.8,0.5,3.8,2.2,4.3c0.3,0.1,0.7,0.1,1,0.1
		c1.5,0,2.7-0.9,3.3-2.4C199.8,208.4,193.8,199.5,184,196.4z"/>
	<path d="M161.8,172.7c-2.5-3.5-6.4-6.3-10.9-7.8c-3.1-1-5.8-2.9-7.5-5.1c-1.5-2.1-1.9-4.1-1.4-6c0.6-1.8-0.5-3.8-2.2-4.3
		c-1.8-0.6-3.8,0.5-4.3,2.2c-1.3,3.9-0.5,8.3,2.3,12.1c2.5,3.5,6.4,6.3,10.9,7.8c3.1,1,5.8,2.9,7.5,5.1c1.5,2.1,1.9,4.1,1.4,6
		c-0.6,1.8,0.5,3.8,2.2,4.3c0.3,0.1,0.7,0.1,1,0.1c1.5,0,2.7-0.9,3.3-2.4C165.3,180.8,164.5,176.5,161.8,172.7z"/>
	<path d="M129,139.2c-2.5-3.5-6.4-6.3-10.9-7.8c-6-1.9-10.1-7.1-8.8-11.2c0.6-1.8-0.5-3.8-2.2-4.3c-1.8-0.6-3.8,0.5-4.3,2.2
		c-2.5,7.8,3.4,16.6,13.2,19.7c3.1,1,5.8,2.9,7.5,5.1c1.5,2.1,1.9,4.1,1.4,6c-0.6,1.8,0.5,3.8,2.2,4.3c0.3,0.1,0.7,0.1,1,0.1
		c1.5,0,2.7-0.9,3.3-2.4C132.4,147.4,131.6,142.9,129,139.2z"/>
	<path d="M97.7,108.3c-2.5-3.5-6.4-6.3-10.9-7.8c-3.1-1-5.8-2.9-7.5-5.1c-1.5-2.1-1.9-4.1-1.4-6c0.6-1.8-0.5-3.8-2.2-4.3
		c-1.8-0.6-3.8,0.5-4.3,2.2c-1.3,3.9-0.5,8.3,2.3,12.1c2.5,3.5,6.4,6.3,10.9,7.8c3.1,1,5.8,2.9,7.5,5.1c1.5,2.1,1.9,4.1,1.4,6
		c-0.6,1.8,0.5,3.8,2.2,4.3c0.3,0.1,0.7,0.1,1,0.1c1.5,0,2.7-0.9,3.3-2.4C101.2,116.4,100.4,112,97.7,108.3z"/>
	<path d="M205.1,212.8c-1.8-0.2-3.6,1-3.9,2.9c-0.6,4.1-7.1,8.7-15.6,8.7c-0.1,0-0.1,0-0.2,0H141c1.5-2.6,2.4-5.7,2.4-9
		s-0.9-6.4-2.5-9.1c1.6-2.6,2.5-5.8,2.5-9.1c0-10-8.1-18.2-18.2-18.2c-3.3,0-6.4,0.9-9.1,2.5c-2.6-1.6-5.8-2.5-9.1-2.5
		c-10,0-18.2,8.1-18.2,18.2c0,3.3,0.9,6.4,2.5,9.1c-1.6,2.6-2.5,5.8-2.5,9.1c0,10,8.1,18.2,18.2,18.2c3.3,0,6.4-0.9,9.1-2.5
		c2.6,1.6,5.8,2.5,9.1,2.5c3.2,0,6.3-0.8,8.9-2.3h51.3c0.1,0,0.1,0,0.2,0c11.4,0,21.1-6.4,22.3-14.5
		C208.3,214.9,207.1,213.1,205.1,212.8z"/>
	<path d="M225.8,171.3c0-13-10.6-23.6-23.6-23.6c-9.2,0-16.8-7.5-16.8-16.6c0-13-10.6-23.6-23.6-23.6c-9.2,0-16.8-7.5-16.8-16.8
		V71.3c10.5-1.6,18.5-10.7,18.5-21.7c0-12.1-9.8-21.9-21.9-21.9s-21.9,9.8-21.9,21.9c0,10.9,8,20,18.5,21.7v19.4
		c0,13,10.6,23.6,23.6,23.6c9.2,0,16.8,7.5,16.8,16.8c0,13,10.6,23.5,23.6,23.5c9.2,0,16.8,7.5,16.8,16.8c0,5.1-2.3,9.7-5.9,12.8
		c-3-2.9-6.6-4.7-10.4-5.7c-1-4-3-7.8-6.2-10.8c-2.9-2.9-6.3-4.8-9.9-5.9c-1-3.6-3-7.1-5.9-9.9c-3.1-3.1-6.7-5-10.6-6
		c-1-3.9-3-7.5-6-10.6c-3-3-6.5-4.9-10.3-5.9c-1-3.8-3-7.3-5.9-10.3c-3.1-3.1-7-5.1-10.9-6.2c-1-4-3-7.9-6.2-10.9
		c-2.9-2.9-6.3-4.8-9.9-5.8c-1-3.6-3-7.1-5.8-9.9c-9.1-9.1-23.8-9.1-32.8,0l32.8,32.8l24.5,24.5l24.5,24.5l0,0l16.6,16.6l0,0l0,0
		l0,0l32.8,32.8c7.5-7.5,8.8-19,3.8-27.9C222.4,185.1,225.8,178.6,225.8,171.3z M141.8,61.6c-1.9,0-3.4-1.5-3.4-3.4v-4.8h-4.8
		c-1.9,0-3.4-1.5-3.4-3.4s1.5-3.4,3.4-3.4h4.8v-4.8c0-1.9,1.5-3.4,3.4-3.4c1.9,0,3.4,1.5,3.4,3.4v4.8h4.8c1.9,0,3.4,1.5,3.4,3.4
		s-1.5,3.4-3.4,3.4h-4.8v4.8C145.3,60,143.8,61.6,141.8,61.6z"/>
	<path d="M89.2,146.9c-4.8-4.8-11.6-6.4-17.8-4.9c2.1-3.5,3.2-7.5,3.2-11.7c0-6.3-2.4-12.2-6.8-16.6l0,0c-6.5-6.5-6.5-17.1,0-23.6
		c1.4-1.4,1.4-3.5,0-4.8c-1.4-1.4-3.5-1.4-4.8,0c-9.2,9.2-9.2,24.1,0,33.3l0,0c3.2,3.2,4.9,7.3,4.9,11.9c0,4.4-1.7,8.7-4.9,11.9
		c-1.4,1.4-1.4,3.5,0,4.8c0,0,0.1,0,0.1,0.1l26.3,26.3C96.5,166,96.5,154.2,89.2,146.9z"/>
	<path d="M53.4,113.6L53.4,113.6c-3.2-3.2-4.9-7.4-4.9-11.9s1.7-8.7,4.9-11.9l0,0c8.4-8.4,9.1-21.7,2.1-30.9h29.4
		c0-10.3-8.3-18.7-18.7-18.7c-10.3,0-18.7,8.3-18.7,18.7l0,0c0,0.9,0.3,1.7,1,2.4c6.5,6.5,6.5,17.1,0,23.6l0,0
		c-4.4,4.4-6.8,10.4-6.8,16.6c0,6.3,2.4,12.2,6.8,16.6l0,0c6.5,6.5,6.5,17.1,0,23.6l0,0c-4.4,4.4-6.8,10.4-6.8,16.6
		s2.4,12.2,6.8,16.6c0.7,0.7,1.6,1,2.4,1c0.8,0,1.7-0.3,2.4-1c0.5-0.5,0.8-1,0.9-1.6c7.3,6.6,18.6,6.4,25.7-0.7l-26.3-26.3
		C62.5,137.6,62.5,122.8,53.4,113.6z"/>
	<path d="M158.1,96.9c6.3,6.3,16.5,6.3,22.8,0c0.6-0.6,1.1-1.3,1.6-1.9l42.3,42.3c1.4,1.4,3.5,1.4,4.8,0c1.3-1.4,1.4-3.5,0-4.8
		l-44.2-44.2c0.8-4.9-0.7-10.1-4.4-14c-6.3-6.3-16.5-6.3-22.8,0C151.9,80.3,151.9,90.6,158.1,96.9z M168.5,79.3l7.2,7.2
		c1.4,1.4,1.4,3.5,0,4.8c-1.4,1.4-3.5,1.4-4.8,0l-7.2-7.2c-1.4-1.4-1.4-3.5,0-4.8C165,77.9,167.1,77.9,168.5,79.3z"/>
</g>
</svg>
