  0
SECTION
  2
HEADER
  9
$ACADVER
  1
AC1024
  9
$ACADMAINTVER
 70
     6
  9
$DWGCODEPAGE
  3
UNDEFINED
  9
$INSBASE
 10
0.0
 20
0.0
 30
0.0
  9
$EXTMIN
 10
1.000000000000000E+20
 20
1.000000000000000E+20
 30
1.000000000000000E+20
  9
$EXTMAX
 10
-1.000000000000000E+20
 20
-1.000000000000000E+20
 30
-1.000000000000000E+20
  9
$LIMMIN
 10
0.0
 20
0.0
  9
$LIMMAX
 10
12.0
 20
9.0
  9
$ORTHOMODE
 70
     0
  9
$REGENMODE
 70
     1
  9
$FILLMODE
 70
     1
  9
$QTEXTMODE
 70
     0
  9
$MIRRTEXT
 70
     1
  9
$LTSCALE
 40
1.0
  9
$ATTMODE
 70
     1
  9
$TEXTSIZE
 40
0.2
  9
$TRACEWID
 40
0.05
  9
$TEXTSTYLE
  7
Standard
  9
$CLAYER
  8
0
  9
$CELTYPE
  6
ByLayer
  9
$CECOLOR
 62
   256
  9
$CELTSCALE
 40
1.0
  9
$DISPSILH
 70
     0
  9
$DIMSCALE
 40
1.0
  9
$DIMASZ
 40
0.18
  9
$DIMEXO
 40
0.0625
  9
$DIMDLI
 40
0.38
  9
$DIMRND
 40
0.0
  9
$DIMDLE
 40
0.0
  9
$DIMEXE
 40
0.18
  9
$DIMTP
 40
0.0
  9
$DIMTM
 40
0.0
  9
$DIMTXT
 40
0.18
  9
$DIMCEN
 40
0.09
  9
$DIMTSZ
 40
0.0
  9
$DIMTOL
 70
     0
  9
$DIMLIM
 70
     0
  9
$DIMTIH
 70
     1
  9
$DIMTOH
 70
     1
  9
$DIMSE1
 70
     0
  9
$DIMSE2
 70
     0
  9
$DIMTAD
 70
     0
  9
$DIMZIN
 70
     0
  9
$DIMBLK
  1

  9
$DIMASO
 70
     1
  9
$DIMSHO
 70
     1
  9
$DIMPOST
  1

  9
$DIMAPOST
  1

  9
$DIMALT
 70
     0
  9
$DIMALTD
 70
     2
  9
$DIMALTF
 40
25.4
  9
$DIMLFAC
 40
1.0
  9
$DIMTOFL
 70
     0
  9
$DIMTVP
 40
0.0
  9
$DIMTIX
 70
     0
  9
$DIMSOXD
 70
     0
  9
$DIMSAH
 70
     0
  9
$DIMBLK1
  1

  9
$DIMBLK2
  1

  9
$DIMSTYLE
  2
Standard
  9
$DIMCLRD
 70
     0
  9
$DIMCLRE
 70
     0
  9
$DIMCLRT
 70
     0
  9
$DIMTFAC
 40
1.0
  9
$DIMGAP
 40
0.09
  9
$DIMJUST
 70
     0
  9
$DIMSD1
 70
     0
  9
$DIMSD2
 70
     0
  9
$DIMTOLJ
 70
     1
  9
$DIMTZIN
 70
     0
  9
$DIMALTZ
 70
     0
  9
$DIMALTTZ
 70
     0
  9
$DIMUPT
 70
     0
  9
$DIMDEC
 70
     4
  9
$DIMTDEC
 70
     4
  9
$DIMALTU
 70
     2
  9
$DIMALTTD
 70
     2
  9
$DIMTXSTY
  7
Standard
  9
$DIMAUNIT
 70
     0
  9
$DIMADEC
 70
     0
  9
$DIMALTRND
 40
0.0
  9
$DIMAZIN
 70
     0
  9
$DIMDSEP
 70
    46
  9
$DIMATFIT
 70
     3
  9
$DIMFRAC
 70
     0
  9
$DIMLDRBLK
  1

  9
$DIMLUNIT
 70
     2
  9
$DIMLWD
 70
    -2
  9
$DIMLWE
 70
    -2
  9
$DIMTMOVE
 70
     0
  9
$DIMFXL
 40
1.0
  9
$DIMFXLON
 70
     0
  9
$DIMJOGANG
 40
0.7853981633974483
  9
$DIMTFILL
 70
     0
  9
$DIMTFILLCLR
 70
     0
  9
$DIMARCSYM
 70
     0
  9
$DIMLTYPE
  6

  9
$DIMLTEX1
  6

  9
$DIMLTEX2
  6

  9
$DIMTXTDIRECTION
 70
     0
  9
$LUNITS
 70
     2
  9
$LUPREC
 70
     4
  9
$SKETCHINC
 40
0.1
  9
$FILLETRAD
 40
0.5
  9
$AUNITS
 70
     0
  9
$AUPREC
 70
     0
  9
$MENU
  1
.
  9
$ELEVATION
 40
0.0
  9
$PELEVATION
 40
0.0
  9
$THICKNESS
 40
0.0
  9
$LIMCHECK
 70
     0
  9
$CHAMFERA
 40
0.5
  9
$CHAMFERB
 40
0.5
  9
$CHAMFERC
 40
1.0
  9
$CHAMFERD
 40
0.0
  9
$SKPOLY
 70
     0
  9
$TDCREATE
 40
2458205.760185174
  9
$TDUCREATE
 40
2458206.093518518
  9
$TDUPDATE
 40
2458205.760185174
  9
$TDUUPDATE
 40
2458206.093518518
  9
$TDINDWG
 40
0.0000000116
  9
$TDUSRTIMER
 40
0.0000000116
  9
$USRTIMER
 70
     1
  9
$ANGBASE
 50
0.0
  9
$ANGDIR
 70
     0
  9
$PDMODE
 70
     0
  9
$PDSIZE
 40
0.0
  9
$PLINEWID
 40
0.0
  9
$SPLFRAME
 70
     0
  9
$SPLINETYPE
 70
     6
  9
$SPLINESEGS
 70
     8
  9
$HANDSEED
  5
5B
  9
$SURFTAB1
 70
     6
  9
$SURFTAB2
 70
     6
  9
$SURFTYPE
 70
     6
  9
$SURFU
 70
     6
  9
$SURFV
 70
     6
  9
$UCSBASE
  2

  9
$UCSNAME
  2

  9
$UCSORG
 10
0.0
 20
0.0
 30
0.0
  9
$UCSXDIR
 10
1.0
 20
0.0
 30
0.0
  9
$UCSYDIR
 10
0.0
 20
1.0
 30
0.0
  9
$UCSORTHOREF
  2

  9
$UCSORTHOVIEW
 70
     0
  9
$UCSORGTOP
 10
0.0
 20
0.0
 30
0.0
  9
$UCSORGBOTTOM
 10
0.0
 20
0.0
 30
0.0
  9
$UCSORGLEFT
 10
0.0
 20
0.0
 30
0.0
  9
$UCSORGRIGHT
 10
0.0
 20
0.0
 30
0.0
  9
$UCSORGFRONT
 10
0.0
 20
0.0
 30
0.0
  9
$UCSORGBACK
 10
0.0
 20
0.0
 30
0.0
  9
$PUCSBASE
  2

  9
$PUCSNAME
  2

  9
$PUCSORG
 10
0.0
 20
0.0
 30
0.0
  9
$PUCSXDIR
 10
1.0
 20
0.0
 30
0.0
  9
$PUCSYDIR
 10
0.0
 20
1.0
 30
0.0
  9
$PUCSORTHOREF
  2

  9
$PUCSORTHOVIEW
 70
     0
  9
$PUCSORGTOP
 10
0.0
 20
0.0
 30
0.0
  9
$PUCSORGBOTTOM
 10
0.0
 20
0.0
 30
0.0
  9
$PUCSORGLEFT
 10
0.0
 20
0.0
 30
0.0
  9
$PUCSORGRIGHT
 10
0.0
 20
0.0
 30
0.0
  9
$PUCSORGFRONT
 10
0.0
 20
0.0
 30
0.0
  9
$PUCSORGBACK
 10
0.0
 20
0.0
 30
0.0
  9
$USERI1
 70
     0
  9
$USERI2
 70
     0
  9
$USERI3
 70
     0
  9
$USERI4
 70
     0
  9
$USERI5
 70
     0
  9
$USERR1
 40
0.0
  9
$USERR2
 40
0.0
  9
$USERR3
 40
0.0
  9
$USERR4
 40
0.0
  9
$USERR5
 40
0.0
  9
$WORLDVIEW
 70
     1
  9
$SHADEDGE
 70
     3
  9
$SHADEDIF
 70
    70
  9
$TILEMODE
 70
     1
  9
$MAXACTVP
 70
    64
  9
$PINSBASE
 10
0.0
 20
0.0
 30
0.0
  9
$PLIMCHECK
 70
     0
  9
$PEXTMIN
 10
1.000000000000000E+20
 20
1.000000000000000E+20
 30
1.000000000000000E+20
  9
$PEXTMAX
 10
-1.000000000000000E+20
 20
-1.000000000000000E+20
 30
-1.000000000000000E+20
  9
$PLIMMIN
 10
0.0
 20
0.0
  9
$PLIMMAX
 10
12.0
 20
9.0
  9
$UNITMODE
 70
     0
  9
$VISRETAIN
 70
     1
  9
$PLINEGEN
 70
     0
  9
$PSLTSCALE
 70
     1
  9
$TREEDEPTH
 70
  3020
  9
$CMLSTYLE
  2
Standard
  9
$CMLJUST
 70
     0
  9
$CMLSCALE
 40
1.0
  9
$PROXYGRAPHICS
 70
     1
  9
$MEASUREMENT
 70
     0
  9
$CELWEIGHT
370
    -1
  9
$ENDCAPS
280
     0
  9
$JOINSTYLE
280
     0
  9
$LWDISPLAY
290
     1
  9
$INSUNITS
 70
     1
  9
$HYPERLINKBASE
  1

  9
$STYLESHEET
  1

  9
$XEDIT
290
     1
  9
$CEPSNTYPE
380
     0
  9
$PSTYLEMODE
290
     1
  9
$FINGERPRINTGUID
  2
{8EC2CAB9-A203-D5C4-17E1-C1F5C87583E2}
  9
$VERSIONGUID
  2
{FAEB1C32-E019-11D5-929B-00C0DF256EC4}
  9
$EXTNAMES
290
     1
  9
$PSVPSCALE
 40
0.0
  9
$OLESTARTUP
290
     0
  9
$SORTENTS
280
   127
  9
$INDEXCTL
280
     0
  9
$HIDETEXT
280
     1
  9
$XCLIPFRAME
280
     2
  9
$HALOGAP
280
     0
  9
$OBSCOLOR
 70
   257
  9
$OBSLTYPE
280
     0
  9
$INTERSECTIONDISPLAY
280
     0
  9
$INTERSECTIONCOLOR
 70
   257
  9
$DIMASSOC
280
     2
  9
$PROJECTNAME
  1

  9
$CAMERADISPLAY
290
     0
  9
$LENSLENGTH
 40
50.0
  9
$CAMERAHEIGHT
 40
0.0
  9
$STEPSPERSEC
 40
2.0
  9
$STEPSIZE
 40
6.0
  9
$3DDWFPREC
 40
2.0
  9
$PSOLWIDTH
 40
0.25
  9
$PSOLHEIGHT
 40
4.0
  9
$LOFTANG1
 40
1.570796326794897
  9
$LOFTANG2
 40
1.570796326794897
  9
$LOFTMAG1
 40
0.0
  9
$LOFTMAG2
 40
0.0
  9
$LOFTPARAM
 70
     7
  9
$LOFTNORMALS
280
     1
  9
$LATITUDE
 40
37.795
  9
$LONGITUDE
 40
-122.394
  9
$NORTHDIRECTION
 40
0.0
  9
$TIMEZONE
 70
 -8000
  9
$LIGHTGLYPHDISPLAY
280
     1
  9
$TILEMODELIGHTSYNCH
280
     1
  9
$CMATERIAL
347
3C
  9
$SOLIDHIST
280
     1
  9
$SHOWHIST
280
     1
  9
$DWFFRAME
280
     2
  9
$DGNFRAME
280
     2
  9
$REALWORLDSCALE
290
     1
  9
$INTERFERECOLOR
 62
   256
  9
$CSHADOW
280
     0
  9
$SHADOWPLANELOCATION
 40
0.0
  0
ENDSEC
  0
SECTION
  2
CLASSES
  0
CLASS
  1
ACDBDICTIONARYWDFLT
  2
AcDbDictionaryWithDefault
  3
ObjectDBX Classes
 90
        0
 91
        4
280
     0
281
     0
  0
CLASS
  1
VISUALSTYLE
  2
AcDbVisualStyle
  3
ObjectDBX Classes
 90
     4095
 91
        4
280
     0
281
     0
  0
CLASS
  1
MATERIAL
  2
AcDbMaterial
  3
ObjectDBX Classes
 90
     1153
 91
        4
280
     0
281
     0
  0
CLASS
  1
SUN
  2
AcDbSun
  3
SCENEOE
 90
     1024
 91
        4
280
     0
281
     0
  0
ENDSEC
  0
SECTION
  2
TABLES
  0
TABLE
  2
VPORT
  5
8
330
0
100
AcDbSymbolTable
 70
     1
  0
VPORT
  5
29
330
8
100
AcDbSymbolTableRecord
100
AcDbViewportTableRecord
  2
*Active
 70
     0
 10
0.0
 20
0.0
 11
1.0
 21
1.0
 12
0.0
 22
0.0
 13
0.0
 23
0.0
 14
0.5
 24
0.5
 15
0.5
 25
0.5
 16
0.0
 26
0.0
 36
1.0
 17
1.940972222222222
 27
-1.840277777777778
 37
0.0
 40
3.680555555555555
 41
1.017520215633422
 42
50.0
 43
0.0
 44
0.0
 50
0.0
 51
0.0
 71
     0
 72
   100
 73
     1
 74
     3
 75
     0
 76
     0
 77
     0
 78
     0
281
     0
 65
     1
110
0.0
120
0.0
130
0.0
111
1.0
121
0.0
131
0.0
112
0.0
122
1.0
132
0.0
 79
     0
146
0.0
 60
     3
 61
     5
292
     1
282
     1
141
0.0
142
0.0
 63
   250
361
3F
  0
ENDTAB
  0
TABLE
  2
LTYPE
  5
5
330
0
100
AcDbSymbolTable
 70
     1
  0
LTYPE
  5
14
330
5
100
AcDbSymbolTableRecord
100
AcDbLinetypeTableRecord
  2
ByBlock
 70
     0
  3

 72
    65
 73
     0
 40
0.0
  0
LTYPE
  5
15
330
5
100
AcDbSymbolTableRecord
100
AcDbLinetypeTableRecord
  2
ByLayer
 70
     0
  3

 72
    65
 73
     0
 40
0.0
  0
LTYPE
  5
16
330
5
100
AcDbSymbolTableRecord
100
AcDbLinetypeTableRecord
  2
Continuous
 70
     0
  3
Solid line
 72
    65
 73
     0
 40
0.0
  0
ENDTAB
  0
TABLE
  2
LAYER
  5
2
330
0
100
AcDbSymbolTable
 70
     2
  0
LAYER
  5
10
330
2
100
AcDbSymbolTableRecord
100
AcDbLayerTableRecord
  2
0
 70
     0
 62
     7
  6
Continuous
370
    -3
390
F
347
3E
  0
LAYER
  5
40
330
2
100
AcDbSymbolTableRecord
100
AcDbLayerTableRecord
  2
Layer 1
 70
     0
 62
     7
  6
Continuous
370
    -3
390
F
347
3E
  0
ENDTAB
  0
TABLE
  2
STYLE
  5
3
330
0
100
AcDbSymbolTable
 70
     1
  0
STYLE
  5
11
330
3
100
AcDbSymbolTableRecord
100
AcDbTextStyleTableRecord
  2
Standard
 70
     0
 40
0.0
 41
1.0
 50
0.0
 71
     0
 42
0.2
  3
txt
  4

  0
ENDTAB
  0
TABLE
  2
VIEW
  5
6
330
0
100
AcDbSymbolTable
 70
     0
  0
ENDTAB
  0
TABLE
  2
UCS
  5
7
330
0
100
AcDbSymbolTable
 70
     0
  0
ENDTAB
  0
TABLE
  2
APPID
  5
9
330
0
100
AcDbSymbolTable
 70
     1
  0
APPID
  5
12
330
9
100
AcDbSymbolTableRecord
100
AcDbRegAppTableRecord
  2
ACAD
 70
     0
  0
ENDTAB
  0
TABLE
  2
DIMSTYLE
  5
A
330
0
100
AcDbSymbolTable
 70
     1
100
AcDbDimStyleTable
  0
DIMSTYLE
105
27
330
A
100
AcDbSymbolTableRecord
100
AcDbDimStyleTableRecord
  2
Standard
 70
     0
178
     0
340
11
  0
ENDTAB
  0
TABLE
  2
BLOCK_RECORD
  5
1
330
0
100
AcDbSymbolTable
 70
     2
  0
BLOCK_RECORD
  5
1F
330
1
100
AcDbSymbolTableRecord
100
AcDbBlockTableRecord
  2
*Model_Space
340
22
 70
     0
280
     1
281
     0
  0
BLOCK_RECORD
  5
1B
330
1
100
AcDbSymbolTableRecord
100
AcDbBlockTableRecord
  2
*Paper_Space
340
1E
 70
     0
280
     1
281
     0
  0
BLOCK_RECORD
  5
23
330
1
100
AcDbSymbolTableRecord
100
AcDbBlockTableRecord
  2
*Paper_Space0
340
26
 70
     0
280
     1
281
     0
  0
BLOCK_RECORD
  5
41
330
1
100
AcDbSymbolTableRecord
100
AcDbBlockTableRecord
  2
block 2
340
0
102
{BLKREFS
331
42
102
}
 70
     0
280
     1
281
     0
  0
ENDTAB
  0
ENDSEC
  0
SECTION
  2
BLOCKS
  0
BLOCK
  5
20
330
1F
100
AcDbEntity
  8
0
100
AcDbBlockBegin
  2
*Model_Space
 70
     0
 10
0.0
 20
0.0
 30
0.0
  3
*Model_Space
  1

  0
ENDBLK
  5
21
330
1F
100
AcDbEntity
  8
0
100
AcDbBlockEnd
  0
BLOCK
  5
1C
330
1B
100
AcDbEntity
 67
     1
  8
0
100
AcDbBlockBegin
  2
*Paper_Space
 70
     0
 10
0.0
 20
0.0
 30
0.0
  3
*Paper_Space
  1

  0
ENDBLK
  5
1D
330
1B
100
AcDbEntity
 67
     1
  8
0
100
AcDbBlockEnd
  0
BLOCK
  5
24
330
23
100
AcDbEntity
  8
0
100
AcDbBlockBegin
  2
*Paper_Space0
 70
     0
 10
0.0
 20
0.0
 30
0.0
  3
*Paper_Space0
  1

  0
ENDBLK
  5
25
330
23
100
AcDbEntity
  8
0
100
AcDbBlockEnd
  0
BLOCK
  5
43
330
41
100
AcDbEntity
  8
0
100
AcDbBlockBegin
  2
block 2
 70
     0
 10
0.0
 20
0.0
 30
0.0
  3
block 2
  1

  0
SPLINE
  5
45
330
41
100
AcDbEntity
  8
Layer 1
370
     0
100
AcDbSpline
210
0.0
220
0.0
230
1.0
 70
    11
 71
     3
 72
    44
 73
    40
 74
     0
 42
0.0000000001
 43
0.0000000001
 12
1.0
 22
0.0
 32
0.0
 13
1.0
 23
0.0
 33
0.0
 40
0.0
 40
0.0
 40
0.0
 40
0.0
 40
1.0
 40
1.0
 40
1.0
 40
2.0
 40
2.0
 40
2.0
 40
3.0
 40
3.0
 40
3.0
 40
4.0
 40
4.0
 40
4.0
 40
5.0
 40
5.0
 40
5.0
 40
6.0
 40
6.0
 40
6.0
 40
7.0
 40
7.0
 40
7.0
 40
8.0
 40
8.0
 40
8.0
 40
9.0
 40
9.0
 40
9.0
 40
10.0
 40
10.0
 40
10.0
 40
11.0
 40
11.0
 40
11.0
 40
12.0
 40
12.0
 40
12.0
 40
13.0
 40
13.0
 40
13.0
 40
13.0
 10
2.624339487736127
 20
-2.727950246126814
 30
0.0
 10
2.624339487736127
 20
-2.727950246126814
 30
0.0
 10
2.624339487736127
 20
-2.727950246126814
 30
0.0
 10
2.624339487736127
 20
-2.727950246126814
 30
0.0
 10
2.581583333507953
 20
-2.7136982752616
 30
0.0
 10
2.54357767514648
 20
-2.688361169687267
 30
0.0
 10
2.519824229282726
 20
-2.656689908535605
 30
0.0
 10
2.499237861207676
 20
-2.628185725172645
 30
0.0
 10
2.492903705630372
 20
-2.59968154180966
 30
0.0
 10
2.500821520918255
 20
-2.572761018157305
 30
0.0
 10
2.508739336206165
 20
-2.547423912582998
 30
0.0
 10
2.494487365340976
 20
-2.520503388930567
 30
0.0
 10
2.470733919477248
 20
-2.512585573642683
 30
0.0
 10
2.445396813902865
 20
-2.504667758354748
 30
0.0
 10
2.418476290250535
 20
-2.518919729220013
 30
0.0
 10
2.410558474962626
 20
-2.54267317508369
 30
0.0
 10
2.393139184676202
 20
-2.596514222388477
 30
0.0
 10
2.404224319385321
 20
-2.658273326613653
 30
0.0
 10
2.442229736114238
 20
-2.710530955840391
 30
0.0
 10
2.477068075054553
 20
-2.759621507278451
 30
0.0
 10
2.530909363991845
 20
-2.797626924007368
 30
0.0
 10
2.594251886295119
 20
-2.818213292082419
 30
0.0
 10
2.594251886295119
 20
-2.818213292082419
 30
0.0
 10
2.594251886295119
 20
-2.818213292082419
 30
0.0
 10
2.594251886295119
 20
-2.818213292082419
 30
0.0
 10
2.678180776673419
 20
-2.845133815734824
 30
0.0
 10
2.735188901766858
 20
-2.916394153325958
 30
0.0
 10
2.716186193402362
 20
-2.973402520051927
 30
0.0
 10
2.708268378114452
 20
-2.99873962562626
 30
0.0
 10
2.722520348979666
 20
-3.025660149278666
 30
0.0
 10
2.746273794843419
 20
-3.03357796456655
 30
0.0
 10
2.751024532342676
 20
-3.035161624277129
 30
0.0
 10
2.755775269841908
 20
-3.035161624277129
 30
0.0
 10
2.760525765708608
 20
-3.035161624277129
 30
0.0
 10
2.781112133783684
 20
-3.035161624277129
 30
0.0
 10
2.798531182437551
 20
-3.022493071489988
 30
0.0
 10
2.806448997725485
 20
-3.001906703414938
 30
0.0
 10
2.842871238008886
 20
-2.894224367172834
 30
0.0
 10
2.760526007341165
 20
-2.770706400354988
 30
0.0
 10
2.624339487736127
 20
-2.727950246126814
 30
0.0
  0
HATCH
  5
46
330
41
100
AcDbEntity
  8
Layer 1
 62
     7
420
 16777215
100
AcDbHatch
 10
0.0
 20
0.0
 30
0.0
210
0.0
220
0.0
230
1.0
  2
SOLID
 70
     1
 71
     0
 91
        1
 92
        1
 93
        1
 72
     4
 94
        3
 73
     0
 74
     1
 95
       44
 96
       40
 40
0.0
 40
0.0
 40
0.0
 40
0.0
 40
1.0
 40
1.0
 40
1.0
 40
2.0
 40
2.0
 40
2.0
 40
3.0
 40
3.0
 40
3.0
 40
4.0
 40
4.0
 40
4.0
 40
5.0
 40
5.0
 40
5.0
 40
6.0
 40
6.0
 40
6.0
 40
7.0
 40
7.0
 40
7.0
 40
8.0
 40
8.0
 40
8.0
 40
9.0
 40
9.0
 40
9.0
 40
10.0
 40
10.0
 40
10.0
 40
11.0
 40
11.0
 40
11.0
 40
12.0
 40
12.0
 40
12.0
 40
13.0
 40
13.0
 40
13.0
 40
13.0
 10
2.624339487736127
 20
-2.727950246126814
 10
2.624339487736127
 20
-2.727950246126814
 10
2.624339487736127
 20
-2.727950246126814
 10
2.624339487736127
 20
-2.727950246126814
 10
2.581583333507953
 20
-2.7136982752616
 10
2.54357767514648
 20
-2.688361169687267
 10
2.519824229282726
 20
-2.656689908535605
 10
2.499237861207676
 20
-2.628185725172645
 10
2.492903705630372
 20
-2.59968154180966
 10
2.500821520918255
 20
-2.572761018157305
 10
2.508739336206165
 20
-2.547423912582998
 10
2.494487365340976
 20
-2.520503388930567
 10
2.470733919477248
 20
-2.512585573642683
 10
2.445396813902865
 20
-2.504667758354748
 10
2.418476290250535
 20
-2.518919729220013
 10
2.410558474962626
 20
-2.54267317508369
 10
2.393139184676202
 20
-2.596514222388477
 10
2.404224319385321
 20
-2.658273326613653
 10
2.442229736114238
 20
-2.710530955840391
 10
2.477068075054553
 20
-2.759621507278451
 10
2.530909363991845
 20
-2.797626924007368
 10
2.594251886295119
 20
-2.818213292082419
 10
2.594251886295119
 20
-2.818213292082419
 10
2.594251886295119
 20
-2.818213292082419
 10
2.594251886295119
 20
-2.818213292082419
 10
2.678180776673419
 20
-2.845133815734824
 10
2.735188901766858
 20
-2.916394153325958
 10
2.716186193402362
 20
-2.973402520051927
 10
2.708268378114452
 20
-2.99873962562626
 10
2.722520348979666
 20
-3.025660149278666
 10
2.746273794843419
 20
-3.03357796456655
 10
2.751024532342676
 20
-3.035161624277129
 10
2.755775269841908
 20
-3.035161624277129
 10
2.760525765708608
 20
-3.035161624277129
 10
2.781112133783684
 20
-3.035161624277129
 10
2.798531182437551
 20
-3.022493071489988
 10
2.806448997725485
 20
-3.001906703414938
 10
2.842871238008886
 20
-2.894224367172834
 10
2.760526007341165
 20
-2.770706400354988
 10
2.624339487736127
 20
-2.727950246126814
 97
        0
 97
        0
 75
     2
 76
     1
 98
        0
  0
SPLINE
  5
47
330
41
100
AcDbEntity
  8
Layer 1
370
     0
100
AcDbSpline
210
0.0
220
0.0
230
1.0
 70
    11
 71
     3
 72
    44
 73
    40
 74
     0
 42
0.0000000001
 43
0.0000000001
 12
1.0
 22
0.0
 32
0.0
 13
1.0
 23
0.0
 33
0.0
 40
0.0
 40
0.0
 40
0.0
 40
0.0
 40
1.0
 40
1.0
 40
1.0
 40
2.0
 40
2.0
 40
2.0
 40
3.0
 40
3.0
 40
3.0
 40
4.0
 40
4.0
 40
4.0
 40
5.0
 40
5.0
 40
5.0
 40
6.0
 40
6.0
 40
6.0
 40
7.0
 40
7.0
 40
7.0
 40
8.0
 40
8.0
 40
8.0
 40
9.0
 40
9.0
 40
9.0
 40
10.0
 40
10.0
 40
10.0
 40
11.0
 40
11.0
 40
11.0
 40
12.0
 40
12.0
 40
12.0
 40
13.0
 40
13.0
 40
13.0
 40
13.0
 10
2.315544691507714
 20
-2.3985690818233
 30
0.0
 10
2.280706352567449
 20
-2.34947853038529
 30
0.0
 10
2.226865063630132
 20
-2.311473113656322
 30
0.0
 10
2.163522662143123
 20
-2.290886745581247
 30
0.0
 10
2.120766507914949
 20
-2.276634774716058
 30
0.0
 10
2.082760970369741
 20
-2.251297669141725
 30
0.0
 10
2.059007524506038
 20
-2.219626407990088
 30
0.0
 10
2.038421156430988
 20
-2.191122224627128
 30
0.0
 10
2.032087000853633
 20
-2.162618041264118
 30
0.0
 10
2.040004816141542
 20
-2.135697517611763
 30
0.0
 10
2.047922631429477
 20
-2.110360412037431
 30
0.0
 10
2.033670539747972
 20
-2.08343988838505
 30
0.0
 10
2.009917093884244
 20
-2.075522073097116
 30
0.0
 10
1.984580109126177
 20
-2.067604257809257
 30
0.0
 10
1.957659464657556
 20
-2.081856228674446
 30
0.0
 10
1.949741649369647
 20
-2.105609674538174
 30
0.0
 10
1.932322479899514
 20
-2.15945072184291
 30
0.0
 10
1.943407372976051
 20
-2.221209826068136
 30
0.0
 10
1.981412910521233
 20
-2.273467455294824
 30
0.0
 10
2.016251249461548
 20
-2.322558006732884
 30
0.0
 10
2.0700924175826
 20
-2.360563423461826
 30
0.0
 10
2.133434939885825
 20
-2.381149791536902
 30
0.0
 10
2.176191094114074
 20
-2.395401762402091
 30
0.0
 10
2.214196752475497
 20
-2.420738867976423
 30
0.0
 10
2.237950198339225
 20
-2.452410129128086
 30
0.0
 10
2.258536566414326
 20
-2.480914312491071
 30
0.0
 10
2.264870721991605
 20
-2.50941849585403
 30
0.0
 10
2.256952906703721
 20
-2.536339019506411
 30
0.0
 10
2.249035091415787
 20
-2.561676125080743
 30
0.0
 10
2.263287062281051
 20
-2.588596648733099
 30
0.0
 10
2.287040508144729
 20
-2.596514464020983
 30
0.0
 10
2.291791245643986
 20
-2.598098123731638
 30
0.0
 10
2.296541983143293
 20
-2.598098123731638
 30
0.0
 10
2.301292479009968
 20
-2.598098123731638
 30
0.0
 10
2.321878847085044
 20
-2.598098123731638
 30
0.0
 10
2.33929789573891
 20
-2.585429570944421
 30
0.0
 10
2.34721571102682
 20
-2.56484320286937
 30
0.0
 10
2.364635242945774
 20
-2.51100215556461
 30
0.0
 10
2.353550349869213
 20
-2.450826711050013
 30
0.0
 10
2.315544691507714
 20
-2.3985690818233
 30
0.0
  0
HATCH
  5
48
330
41
100
AcDbEntity
  8
Layer 1
 62
     7
420
 16777215
100
AcDbHatch
 10
0.0
 20
0.0
 30
0.0
210
0.0
220
0.0
230
1.0
  2
SOLID
 70
     1
 71
     0
 91
        1
 92
        1
 93
        1
 72
     4
 94
        3
 73
     0
 74
     1
 95
       44
 96
       40
 40
0.0
 40
0.0
 40
0.0
 40
0.0
 40
1.0
 40
1.0
 40
1.0
 40
2.0
 40
2.0
 40
2.0
 40
3.0
 40
3.0
 40
3.0
 40
4.0
 40
4.0
 40
4.0
 40
5.0
 40
5.0
 40
5.0
 40
6.0
 40
6.0
 40
6.0
 40
7.0
 40
7.0
 40
7.0
 40
8.0
 40
8.0
 40
8.0
 40
9.0
 40
9.0
 40
9.0
 40
10.0
 40
10.0
 40
10.0
 40
11.0
 40
11.0
 40
11.0
 40
12.0
 40
12.0
 40
12.0
 40
13.0
 40
13.0
 40
13.0
 40
13.0
 10
2.315544691507714
 20
-2.3985690818233
 10
2.280706352567449
 20
-2.34947853038529
 10
2.226865063630132
 20
-2.311473113656322
 10
2.163522662143123
 20
-2.290886745581247
 10
2.120766507914949
 20
-2.276634774716058
 10
2.082760970369741
 20
-2.251297669141725
 10
2.059007524506038
 20
-2.219626407990088
 10
2.038421156430988
 20
-2.191122224627128
 10
2.032087000853633
 20
-2.162618041264118
 10
2.040004816141542
 20
-2.135697517611763
 10
2.047922631429477
 20
-2.110360412037431
 10
2.033670539747972
 20
-2.08343988838505
 10
2.009917093884244
 20
-2.075522073097116
 10
1.984580109126177
 20
-2.067604257809257
 10
1.957659464657556
 20
-2.081856228674446
 10
1.949741649369647
 20
-2.105609674538174
 10
1.932322479899514
 20
-2.15945072184291
 10
1.943407372976051
 20
-2.221209826068136
 10
1.981412910521233
 20
-2.273467455294824
 10
2.016251249461548
 20
-2.322558006732884
 10
2.0700924175826
 20
-2.360563423461826
 10
2.133434939885825
 20
-2.381149791536902
 10
2.176191094114074
 20
-2.395401762402091
 10
2.214196752475497
 20
-2.420738867976423
 10
2.237950198339225
 20
-2.452410129128086
 10
2.258536566414326
 20
-2.480914312491071
 10
2.264870721991605
 20
-2.50941849585403
 10
2.256952906703721
 20
-2.536339019506411
 10
2.249035091415787
 20
-2.561676125080743
 10
2.263287062281051
 20
-2.588596648733099
 10
2.287040508144729
 20
-2.596514464020983
 10
2.291791245643986
 20
-2.598098123731638
 10
2.296541983143293
 20
-2.598098123731638
 10
2.301292479009968
 20
-2.598098123731638
 10
2.321878847085044
 20
-2.598098123731638
 10
2.33929789573891
 20
-2.585429570944421
 10
2.34721571102682
 20
-2.56484320286937
 10
2.364635242945774
 20
-2.51100215556461
 10
2.353550349869213
 20
-2.450826711050013
 10
2.315544691507714
 20
-2.3985690818233
 97
        0
 97
        0
 75
     2
 76
     1
 98
        0
  0
SPLINE
  5
49
330
41
100
AcDbEntity
  8
Layer 1
370
     0
100
AcDbSpline
210
0.0
220
0.0
230
1.0
 70
    11
 71
     3
 72
    38
 73
    34
 74
     0
 42
0.0000000001
 43
0.0000000001
 12
1.0
 22
0.0
 32
0.0
 13
1.0
 23
0.0
 33
0.0
 40
0.0
 40
0.0
 40
0.0
 40
0.0
 40
1.0
 40
1.0
 40
1.0
 40
2.0
 40
2.0
 40
2.0
 40
3.0
 40
3.0
 40
3.0
 40
4.0
 40
4.0
 40
4.0
 40
5.0
 40
5.0
 40
5.0
 40
6.0
 40
6.0
 40
6.0
 40
7.0
 40
7.0
 40
7.0
 40
8.0
 40
8.0
 40
8.0
 40
9.0
 40
9.0
 40
9.0
 40
10.0
 40
10.0
 40
10.0
 40
11.0
 40
11.0
 40
11.0
 40
11.0
 10
1.859478603413992
 20
-1.93300163954733
 30
0.0
 10
1.824640264473702
 20
-1.883911088109294
 30
0.0
 10
1.770799096352675
 20
-1.845905671380377
 30
0.0
 10
1.707456574049426
 20
-1.825319303305302
 30
0.0
 10
1.623527683671076
 20
-1.798398779652921
 30
0.0
 10
1.566519437761397
 20
-1.727138442061737
 30
0.0
 10
1.585522266942133
 20
-1.670130075335793
 30
0.0
 10
1.593440082230043
 20
-1.644793090577726
 30
0.0
 10
1.579187990548563
 20
-1.61787244610908
 30
0.0
 10
1.555434544684835
 20
-1.609954630821171
 30
0.0
 10
1.530097559926793
 20
-1.602036815533261
 30
0.0
 10
1.503176915458122
 20
-1.616288907214741
 30
0.0
 10
1.495259100170213
 20
-1.640042353078494
 30
0.0
 10
1.460420761229948
 20
-1.747724689320547
 30
0.0
 10
1.542765991897669
 20
-1.871242535322103
 30
0.0
 10
1.678952390686441
 20
-1.913998689550352
 30
0.0
 10
1.72170854491464
 20
-1.928250660415541
 30
0.0
 10
1.759714082459848
 20
-1.953587765989899
 30
0.0
 10
1.783467528323551
 20
-1.985259027141511
 30
0.0
 10
1.804053896398626
 20
-2.013763210504496
 30
0.0
 10
1.810388051975982
 20
-2.042267393867431
 30
0.0
 10
1.802470236688022
 20
-2.069187917519811
 30
0.0
 10
1.794552421400138
 20
-2.094525023094168
 30
0.0
 10
1.808804513081617
 20
-2.121445546746549
 30
0.0
 10
1.83255795894532
 20
-2.129363362034408
 30
0.0
 10
1.837308696444552
 20
-2.130947021745038
 30
0.0
 10
1.842059313127594
 20
-2.130947021745038
 30
0.0
 10
1.846810050626825
 20
-2.130947021745038
 30
0.0
 10
1.867396418701876
 20
-2.130947021745038
 30
0.0
 10
1.884815588172058
 20
-2.118278468957871
 30
0.0
 10
1.892733403459943
 20
-2.097692100882796
 30
0.0
 10
1.906985495141422
 20
-2.047018131366738
 30
0.0
 10
1.895900602064886
 20
-1.985259268774042
 30
0.0
 10
1.859478603413992
 20
-1.93300163954733
 30
0.0
  0
HATCH
  5
4A
330
41
100
AcDbEntity
  8
Layer 1
 62
     7
420
 16777215
100
AcDbHatch
 10
0.0
 20
0.0
 30
0.0
210
0.0
220
0.0
230
1.0
  2
SOLID
 70
     1
 71
     0
 91
        1
 92
        1
 93
        1
 72
     4
 94
        3
 73
     0
 74
     1
 95
       38
 96
       34
 40
0.0
 40
0.0
 40
0.0
 40
0.0
 40
1.0
 40
1.0
 40
1.0
 40
2.0
 40
2.0
 40
2.0
 40
3.0
 40
3.0
 40
3.0
 40
4.0
 40
4.0
 40
4.0
 40
5.0
 40
5.0
 40
5.0
 40
6.0
 40
6.0
 40
6.0
 40
7.0
 40
7.0
 40
7.0
 40
8.0
 40
8.0
 40
8.0
 40
9.0
 40
9.0
 40
9.0
 40
10.0
 40
10.0
 40
10.0
 40
11.0
 40
11.0
 40
11.0
 40
11.0
 10
1.859478603413992
 20
-1.93300163954733
 10
1.824640264473702
 20
-1.883911088109294
 10
1.770799096352675
 20
-1.845905671380377
 10
1.707456574049426
 20
-1.825319303305302
 10
1.623527683671076
 20
-1.798398779652921
 10
1.566519437761397
 20
-1.727138442061737
 10
1.585522266942133
 20
-1.670130075335793
 10
1.593440082230043
 20
-1.644793090577726
 10
1.579187990548563
 20
-1.61787244610908
 10
1.555434544684835
 20
-1.609954630821171
 10
1.530097559926793
 20
-1.602036815533261
 10
1.503176915458122
 20
-1.616288907214741
 10
1.495259100170213
 20
-1.640042353078494
 10
1.460420761229948
 20
-1.747724689320547
 10
1.542765991897669
 20
-1.871242535322103
 10
1.678952390686441
 20
-1.913998689550352
 10
1.72170854491464
 20
-1.928250660415541
 10
1.759714082459848
 20
-1.953587765989899
 10
1.783467528323551
 20
-1.985259027141511
 10
1.804053896398626
 20
-2.013763210504496
 10
1.810388051975982
 20
-2.042267393867431
 10
1.802470236688022
 20
-2.069187917519811
 10
1.794552421400138
 20
-2.094525023094168
 10
1.808804513081617
 20
-2.121445546746549
 10
1.83255795894532
 20
-2.129363362034408
 10
1.837308696444552
 20
-2.130947021745038
 10
1.842059313127594
 20
-2.130947021745038
 10
1.846810050626825
 20
-2.130947021745038
 10
1.867396418701876
 20
-2.130947021745038
 10
1.884815588172058
 20
-2.118278468957871
 10
1.892733403459943
 20
-2.097692100882796
 10
1.906985495141422
 20
-2.047018131366738
 10
1.895900602064886
 20
-1.985259268774042
 10
1.859478603413992
 20
-1.93300163954733
 97
        0
 97
        0
 75
     2
 76
     1
 98
        0
  0
SPLINE
  5
4B
330
41
100
AcDbEntity
  8
Layer 1
370
     0
100
AcDbSpline
210
0.0
220
0.0
230
1.0
 70
    11
 71
     3
 72
    44
 73
    40
 74
     0
 42
0.0000000001
 43
0.0000000001
 12
1.0
 22
0.0
 32
0.0
 13
1.0
 23
0.0
 33
0.0
 40
0.0
 40
0.0
 40
0.0
 40
0.0
 40
1.0
 40
1.0
 40
1.0
 40
2.0
 40
2.0
 40
2.0
 40
3.0
 40
3.0
 40
3.0
 40
4.0
 40
4.0
 40
4.0
 40
5.0
 40
5.0
 40
5.0
 40
6.0
 40
6.0
 40
6.0
 40
7.0
 40
7.0
 40
7.0
 40
8.0
 40
8.0
 40
8.0
 40
9.0
 40
9.0
 40
9.0
 40
10.0
 40
10.0
 40
10.0
 40
11.0
 40
11.0
 40
11.0
 40
12.0
 40
12.0
 40
12.0
 40
13.0
 40
13.0
 40
13.0
 40
13.0
 10
1.425582301473368
 20
-1.503856075105988
 30
0.0
 10
1.390743962533103
 20
-1.454765644484218
 30
0.0
 10
1.336902794412077
 20
-1.41676010693901
 30
0.0
 10
1.273560272108802
 20
-1.396173738863935
 30
0.0
 10
1.230804117880603
 20
-1.381921647182455
 30
0.0
 10
1.192798580335395
 20
-1.356584662424388
 30
0.0
 10
1.169045134471692
 20
-1.324913401272751
 30
0.0
 10
1.14845882680475
 20
-1.296409217909791
 30
0.0
 10
1.142124550411154
 20
-1.267905155363097
 30
0.0
 10
1.150042365699063
 20
-1.240984510894426
 30
0.0
 10
1.157960241395105
 20
-1.215647526136384
 30
0.0
 10
1.143708089305493
 20
-1.188726881667738
 30
0.0
 10
1.119954643441765
 20
-1.180809066379829
 30
0.0
 10
1.094617658683723
 20
-1.172891251091919
 30
0.0
 10
1.06769707462321
 20
-1.187143342773399
 30
0.0
 10
1.059779259335301
 20
-1.210896788637127
 30
0.0
 10
1.042360089865143
 20
-1.264737956758154
 30
0.0
 10
1.05344498294173
 20
-1.32649694016709
 30
0.0
 10
1.091450520486913
 20
-1.378754448577512
 30
0.0
 10
1.126288919835335
 20
-1.427844879199306
 30
0.0
 10
1.180130027548229
 20
-1.465850416744514
 30
0.0
 10
1.243472549851504
 20
-1.48643678481959
 30
0.0
 10
1.286228704079703
 20
-1.50068887650107
 30
0.0
 10
1.32423424162491
 20
-1.526025861259111
 30
0.0
 10
1.347987687488639
 20
-1.557697122410749
 30
0.0
 10
1.368574055563689
 20
-1.586201305773733
 30
0.0
 10
1.374908211141019
 20
-1.614705368320427
 30
0.0
 10
1.366990395853084
 20
-1.641626012789073
 30
0.0
 10
1.3590725805652
 20
-1.66696299754714
 30
0.0
 10
1.37332467224668
 20
-1.693883642015786
 30
0.0
 10
1.397078118110408
 20
-1.70180145730367
 30
0.0
 10
1.401828855609665
 20
-1.703384996198009
 30
0.0
 10
1.406579472292631
 20
-1.703384996198009
 30
0.0
 10
1.411330209791863
 20
-1.703384996198009
 30
0.0
 10
1.431916577866963
 20
-1.703384996198009
 30
0.0
 10
1.449335747337121
 20
-1.690716443410843
 30
0.0
 10
1.457253562625005
 20
-1.670130196152084
 30
0.0
 10
1.474672852911428
 20
-1.616289028031032
 30
0.0
 10
1.463587839018601
 20
-1.55611358351641
 30
0.0
 10
1.425582301473368
 20
-1.503856075105988
 30
0.0
  0
HATCH
  5
4C
330
41
100
AcDbEntity
  8
Layer 1
 62
     7
420
 16777215
100
AcDbHatch
 10
0.0
 20
0.0
 30
0.0
210
0.0
220
0.0
230
1.0
  2
SOLID
 70
     1
 71
     0
 91
        1
 92
        1
 93
        1
 72
     4
 94
        3
 73
     0
 74
     1
 95
       44
 96
       40
 40
0.0
 40
0.0
 40
0.0
 40
0.0
 40
1.0
 40
1.0
 40
1.0
 40
2.0
 40
2.0
 40
2.0
 40
3.0
 40
3.0
 40
3.0
 40
4.0
 40
4.0
 40
4.0
 40
5.0
 40
5.0
 40
5.0
 40
6.0
 40
6.0
 40
6.0
 40
7.0
 40
7.0
 40
7.0
 40
8.0
 40
8.0
 40
8.0
 40
9.0
 40
9.0
 40
9.0
 40
10.0
 40
10.0
 40
10.0
 40
11.0
 40
11.0
 40
11.0
 40
12.0
 40
12.0
 40
12.0
 40
13.0
 40
13.0
 40
13.0
 40
13.0
 10
1.425582301473368
 20
-1.503856075105988
 10
1.390743962533103
 20
-1.454765644484218
 10
1.336902794412077
 20
-1.41676010693901
 10
1.273560272108802
 20
-1.396173738863935
 10
1.230804117880603
 20
-1.381921647182455
 10
1.192798580335395
 20
-1.356584662424388
 10
1.169045134471692
 20
-1.324913401272751
 10
1.14845882680475
 20
-1.296409217909791
 10
1.142124550411154
 20
-1.267905155363097
 10
1.150042365699063
 20
-1.240984510894426
 10
1.157960241395105
 20
-1.215647526136384
 10
1.143708089305493
 20
-1.188726881667738
 10
1.119954643441765
 20
-1.180809066379829
 10
1.094617658683723
 20
-1.172891251091919
 10
1.06769707462321
 20
-1.187143342773399
 10
1.059779259335301
 20
-1.210896788637127
 10
1.042360089865143
 20
-1.264737956758154
 10
1.05344498294173
 20
-1.32649694016709
 10
1.091450520486913
 20
-1.378754448577512
 10
1.126288919835335
 20
-1.427844879199306
 10
1.180130027548229
 20
-1.465850416744514
 10
1.243472549851504
 20
-1.48643678481959
 10
1.286228704079703
 20
-1.50068887650107
 10
1.32423424162491
 20
-1.526025861259111
 10
1.347987687488639
 20
-1.557697122410749
 10
1.368574055563689
 20
-1.586201305773733
 10
1.374908211141019
 20
-1.614705368320427
 10
1.366990395853084
 20
-1.641626012789073
 10
1.3590725805652
 20
-1.66696299754714
 10
1.37332467224668
 20
-1.693883642015786
 10
1.397078118110408
 20
-1.70180145730367
 10
1.401828855609665
 20
-1.703384996198009
 10
1.406579472292631
 20
-1.703384996198009
 10
1.411330209791863
 20
-1.703384996198009
 10
1.431916577866963
 20
-1.703384996198009
 10
1.449335747337121
 20
-1.690716443410843
 10
1.457253562625005
 20
-1.670130196152084
 10
1.474672852911428
 20
-1.616289028031032
 10
1.463587839018601
 20
-1.55611358351641
 10
1.425582301473368
 20
-1.503856075105988
 97
        0
 97
        0
 75
     2
 76
     1
 98
        0
  0
SPLINE
  5
4D
330
41
100
AcDbEntity
  8
Layer 1
370
     0
100
AcDbSpline
210
0.0
220
0.0
230
1.0
 70
    11
 71
     3
 72
    68
 73
    64
 74
     0
 42
0.0000000001
 43
0.0000000001
 12
1.0
 22
0.0
 32
0.0
 13
1.0
 23
0.0
 33
0.0
 40
0.0
 40
0.0
 40
0.0
 40
0.0
 40
1.0
 40
1.0
 40
1.0
 40
2.0
 40
2.0
 40
2.0
 40
3.0
 40
3.0
 40
3.0
 40
4.0
 40
4.0
 40
4.0
 40
5.0
 40
5.0
 40
5.0
 40
6.0
 40
6.0
 40
6.0
 40
7.0
 40
7.0
 40
7.0
 40
8.0
 40
8.0
 40
8.0
 40
9.0
 40
9.0
 40
9.0
 40
10.0
 40
10.0
 40
10.0
 40
11.0
 40
11.0
 40
11.0
 40
12.0
 40
12.0
 40
12.0
 40
13.0
 40
13.0
 40
13.0
 40
14.0
 40
14.0
 40
14.0
 40
15.0
 40
15.0
 40
15.0
 40
16.0
 40
16.0
 40
16.0
 40
17.0
 40
17.0
 40
17.0
 40
18.0
 40
18.0
 40
18.0
 40
19.0
 40
19.0
 40
19.0
 40
20.0
 40
20.0
 40
20.0
 40
21.0
 40
21.0
 40
21.0
 40
21.0
 10
2.917298653388747
 20
-2.955983471398061
 30
0.0
 10
2.89196154781439
 20
-2.952816393609434
 30
0.0
 10
2.866624683872639
 20
-2.970235442263275
 30
0.0
 10
2.863457606083986
 20
-2.995572547837608
 30
0.0
 10
2.855539790796077
 20
-3.052580914563603
 30
0.0
 10
2.765276744840447
 20
-3.115923436866827
 30
0.0
 10
2.646509515521807
 20
-3.115923436866827
 30
0.0
 10
2.644925855811203
 20
-3.115923436866827
 30
0.0
 10
2.644925855811203
 20
-3.115923436866827
 30
0.0
 10
2.643342437733129
 20
-3.115923436866827
 30
0.0
 10
2.643342437733129
 20
-3.115923436866827
 30
0.0
 10
2.027336384170667
 20
-3.115923436866827
 30
0.0
 10
2.027336384170667
 20
-3.115923436866827
 30
0.0
 10
2.047922752245717
 20
-3.079501438215958
 30
0.0
 10
2.060591184216643
 20
-3.036745283987759
 30
0.0
 10
2.060591184216643
 20
-2.990822051970882
 30
0.0
 10
2.060591184216643
 20
-2.944898819954056
 30
0.0
 10
2.047922631429477
 20
-2.902142424093325
 30
0.0
 10
2.025752845276353
 20
-2.864137007364383
 30
0.0
 10
2.047922752245717
 20
-2.827715008713489
 30
0.0
 10
2.060591184216643
 20
-2.783375194774736
 30
0.0
 10
2.060591184216643
 20
-2.737451962757859
 30
0.0
 10
2.060591184216643
 20
-2.598098365364144
 30
0.0
 10
1.948158231291574
 20
-2.484081873544811
 30
0.0
 10
1.80722109500357
 20
-2.484081873544811
 30
0.0
 10
1.761297742170452
 20
-2.484081873544811
 30
0.0
 10
1.718541587942253
 20
-2.496750426331927
 30
0.0
 10
1.680536050397045
 20
-2.518920212485101
 30
0.0
 10
1.644114051746151
 20
-2.496750426331927
 30
0.0
 10
1.599774358623639
 20
-2.484081873544811
 30
0.0
 10
1.553851005790496
 20
-2.484081873544811
 30
0.0
 10
1.414497408396806
 20
-2.484081873544811
 30
0.0
 10
1.300480916577473
 20
-2.596514947286121
 30
0.0
 10
1.300480916577473
 20
-2.737451962757859
 30
0.0
 10
1.300480916577473
 20
-2.783375194774736
 30
0.0
 10
1.313149469364614
 20
-2.826131590635416
 30
0.0
 10
1.335319255517738
 20
-2.864137007364383
 30
0.0
 10
1.313149348548349
 20
-2.900559006015252
 30
0.0
 10
1.300480916577473
 20
-2.944898819954056
 30
0.0
 10
1.300480916577473
 20
-2.990822051970882
 30
0.0
 10
1.300480916577473
 20
-3.130175649364572
 30
0.0
 10
1.412913869502492
 20
-3.244192141183905
 30
0.0
 10
1.553851005790496
 20
-3.244192141183905
 30
0.0
 10
1.599774358623639
 20
-3.244192141183905
 30
0.0
 10
1.642530512851838
 20
-3.231523588396789
 30
0.0
 10
1.680536050397045
 20
-3.209353802243665
 30
0.0
 10
1.71695804904794
 20
-3.231523588396789
 30
0.0
 10
1.761297742170452
 20
-3.244192141183905
 30
0.0
 10
1.80722109500357
 20
-3.244192141183905
 30
0.0
 10
1.851560908942348
 20
-3.244192141183905
 30
0.0
 10
1.894317063170547
 20
-3.233107248107419
 30
0.0
 10
1.930739061821416
 20
-3.212520880032318
 30
0.0
 10
1.930739061821416
 20
-3.212520880032318
 30
0.0
 10
2.643342437733129
 20
-3.212520880032318
 30
0.0
 10
2.643342437733129
 20
-3.212520880032318
 30
0.0
 10
2.644926097443734
 20
-3.212520880032318
 30
0.0
 10
2.644926097443734
 20
-3.212520880032318
 30
0.0
 10
2.646509515521807
 20
-3.212520880032318
 30
0.0
 10
2.804865821279968
 20
-3.212520880032318
 30
0.0
 10
2.939468681174402
 20
-3.123841252154736
 30
0.0
 10
2.9568879714608
 20
-3.011408420045983
 30
0.0
 10
2.961638467327525
 20
-2.984487413128489
 30
0.0
 10
2.944219418673659
 20
-2.959150549186738
 30
0.0
 10
2.917298653388747
 20
-2.955983471398061
 30
0.0
  0
HATCH
  5
4E
330
41
100
AcDbEntity
  8
Layer 1
 62
     7
420
 16777215
100
AcDbHatch
 10
0.0
 20
0.0
 30
0.0
210
0.0
220
0.0
230
1.0
  2
SOLID
 70
     1
 71
     0
 91
        1
 92
        1
 93
        1
 72
     4
 94
        3
 73
     0
 74
     1
 95
       68
 96
       64
 40
0.0
 40
0.0
 40
0.0
 40
0.0
 40
1.0
 40
1.0
 40
1.0
 40
2.0
 40
2.0
 40
2.0
 40
3.0
 40
3.0
 40
3.0
 40
4.0
 40
4.0
 40
4.0
 40
5.0
 40
5.0
 40
5.0
 40
6.0
 40
6.0
 40
6.0
 40
7.0
 40
7.0
 40
7.0
 40
8.0
 40
8.0
 40
8.0
 40
9.0
 40
9.0
 40
9.0
 40
10.0
 40
10.0
 40
10.0
 40
11.0
 40
11.0
 40
11.0
 40
12.0
 40
12.0
 40
12.0
 40
13.0
 40
13.0
 40
13.0
 40
14.0
 40
14.0
 40
14.0
 40
15.0
 40
15.0
 40
15.0
 40
16.0
 40
16.0
 40
16.0
 40
17.0
 40
17.0
 40
17.0
 40
18.0
 40
18.0
 40
18.0
 40
19.0
 40
19.0
 40
19.0
 40
20.0
 40
20.0
 40
20.0
 40
21.0
 40
21.0
 40
21.0
 40
21.0
 10
2.917298653388747
 20
-2.955983471398061
 10
2.89196154781439
 20
-2.952816393609434
 10
2.866624683872639
 20
-2.970235442263275
 10
2.863457606083986
 20
-2.995572547837608
 10
2.855539790796077
 20
-3.052580914563603
 10
2.765276744840447
 20
-3.115923436866827
 10
2.646509515521807
 20
-3.115923436866827
 10
2.644925855811203
 20
-3.115923436866827
 10
2.644925855811203
 20
-3.115923436866827
 10
2.643342437733129
 20
-3.115923436866827
 10
2.643342437733129
 20
-3.115923436866827
 10
2.027336384170667
 20
-3.115923436866827
 10
2.027336384170667
 20
-3.115923436866827
 10
2.047922752245717
 20
-3.079501438215958
 10
2.060591184216643
 20
-3.036745283987759
 10
2.060591184216643
 20
-2.990822051970882
 10
2.060591184216643
 20
-2.944898819954056
 10
2.047922631429477
 20
-2.902142424093325
 10
2.025752845276353
 20
-2.864137007364383
 10
2.047922752245717
 20
-2.827715008713489
 10
2.060591184216643
 20
-2.783375194774736
 10
2.060591184216643
 20
-2.737451962757859
 10
2.060591184216643
 20
-2.598098365364144
 10
1.948158231291574
 20
-2.484081873544811
 10
1.80722109500357
 20
-2.484081873544811
 10
1.761297742170452
 20
-2.484081873544811
 10
1.718541587942253
 20
-2.496750426331927
 10
1.680536050397045
 20
-2.518920212485101
 10
1.644114051746151
 20
-2.496750426331927
 10
1.599774358623639
 20
-2.484081873544811
 10
1.553851005790496
 20
-2.484081873544811
 10
1.414497408396806
 20
-2.484081873544811
 10
1.300480916577473
 20
-2.596514947286121
 10
1.300480916577473
 20
-2.737451962757859
 10
1.300480916577473
 20
-2.783375194774736
 10
1.313149469364614
 20
-2.826131590635416
 10
1.335319255517738
 20
-2.864137007364383
 10
1.313149348548349
 20
-2.900559006015252
 10
1.300480916577473
 20
-2.944898819954056
 10
1.300480916577473
 20
-2.990822051970882
 10
1.300480916577473
 20
-3.130175649364572
 10
1.412913869502492
 20
-3.244192141183905
 10
1.553851005790496
 20
-3.244192141183905
 10
1.599774358623639
 20
-3.244192141183905
 10
1.642530512851838
 20
-3.231523588396789
 10
1.680536050397045
 20
-3.209353802243665
 10
1.71695804904794
 20
-3.231523588396789
 10
1.761297742170452
 20
-3.244192141183905
 10
1.80722109500357
 20
-3.244192141183905
 10
1.851560908942348
 20
-3.244192141183905
 10
1.894317063170547
 20
-3.233107248107419
 10
1.930739061821416
 20
-3.212520880032318
 10
1.930739061821416
 20
-3.212520880032318
 10
2.643342437733129
 20
-3.212520880032318
 10
2.643342437733129
 20
-3.212520880032318
 10
2.644926097443734
 20
-3.212520880032318
 10
2.644926097443734
 20
-3.212520880032318
 10
2.646509515521807
 20
-3.212520880032318
 10
2.804865821279968
 20
-3.212520880032318
 10
2.939468681174402
 20
-3.123841252154736
 10
2.9568879714608
 20
-3.011408420045983
 10
2.961638467327525
 20
-2.984487413128489
 10
2.944219418673659
 20
-2.959150549186738
 10
2.917298653388747
 20
-2.955983471398061
 97
        0
 97
        0
 75
     2
 76
     1
 98
        0
  0
SPLINE
  5
4F
330
41
100
AcDbEntity
  8
Layer 1
370
     0
100
AcDbSpline
210
0.0
220
0.0
230
1.0
 70
    11
 71
     3
 72
   122
 73
   118
 74
     0
 42
0.0000000001
 43
0.0000000001
 12
1.0
 22
0.0
 32
0.0
 13
1.0
 23
0.0
 33
0.0
 40
0.0
 40
0.0
 40
0.0
 40
0.0
 40
1.0
 40
1.0
 40
1.0
 40
2.0
 40
2.0
 40
2.0
 40
3.0
 40
3.0
 40
3.0
 40
4.0
 40
4.0
 40
4.0
 40
5.0
 40
5.0
 40
5.0
 40
6.0
 40
6.0
 40
6.0
 40
7.0
 40
7.0
 40
7.0
 40
8.0
 40
8.0
 40
8.0
 40
9.0
 40
9.0
 40
9.0
 40
10.0
 40
10.0
 40
10.0
 40
11.0
 40
11.0
 40
11.0
 40
12.0
 40
12.0
 40
12.0
 40
13.0
 40
13.0
 40
13.0
 40
14.0
 40
14.0
 40
14.0
 40
15.0
 40
15.0
 40
15.0
 40
16.0
 40
16.0
 40
16.0
 40
17.0
 40
17.0
 40
17.0
 40
18.0
 40
18.0
 40
18.0
 40
19.0
 40
19.0
 40
19.0
 40
20.0
 40
20.0
 40
20.0
 40
21.0
 40
21.0
 40
21.0
 40
22.0
 40
22.0
 40
22.0
 40
23.0
 40
23.0
 40
23.0
 40
24.0
 40
24.0
 40
24.0
 40
25.0
 40
25.0
 40
25.0
 40
26.0
 40
26.0
 40
26.0
 40
27.0
 40
27.0
 40
27.0
 40
28.0
 40
28.0
 40
28.0
 40
29.0
 40
29.0
 40
29.0
 40
30.0
 40
30.0
 40
30.0
 40
31.0
 40
31.0
 40
31.0
 40
32.0
 40
32.0
 40
32.0
 40
33.0
 40
33.0
 40
33.0
 40
34.0
 40
34.0
 40
34.0
 40
35.0
 40
35.0
 40
35.0
 40
36.0
 40
36.0
 40
36.0
 40
37.0
 40
37.0
 40
37.0
 40
38.0
 40
38.0
 40
38.0
 40
39.0
 40
39.0
 40
39.0
 40
39.0
 10
3.203923663463986
 20
-2.379566373458854
 30
0.0
 10
3.203923663463986
 20
-2.199040281547569
 30
0.0
 10
3.056652250782438
 20
-2.051768868865995
 30
0.0
 10
2.876126158871128
 20
-2.051768868865995
 30
0.0
 10
2.747857454553973
 20
-2.051768868865995
 30
0.0
 10
2.643342437733129
 20
-1.947253610412544
 30
0.0
 10
2.643342437733129
 20
-1.820568565806045
 30
0.0
 10
2.643342437733129
 20
-1.640042353078494
 30
0.0
 10
2.49607102505153
 20
-1.49277106121316
 30
0.0
 10
2.31554493314027
 20
-1.49277106121316
 30
0.0
 10
2.187276228823117
 20
-1.49277106121316
 30
0.0
 10
2.082761212002272
 20
-1.388255923576051
 30
0.0
 10
2.082761212002272
 20
-1.259987340075188
 30
0.0
 10
2.082761212002272
 20
-1.259987340075188
 30
0.0
 10
2.082761212002272
 20
-0.9907816202862957
 30
0.0
 10
2.082761212002272
 20
-0.9907816202862957
 30
0.0
 10
2.228448964973293
 20
-0.9686117133169065
 30
0.0
 10
2.339298379004024
 20
-0.8419266687103825
 30
0.0
 10
2.339298379004024
 20
-0.6899046393457916
 30
0.0
 10
2.339298379004024
 20
-0.5220469794054072
 30
0.0
 10
2.20311185939896
 20
-0.3858605202085022
 30
0.0
 10
2.035254320274842
 20
-0.3858605202085022
 30
0.0
 10
1.867396781150698
 20
-0.3858605202085022
 30
0.0
 10
1.73121026154571
 20
-0.5220469794054072
 30
0.0
 10
1.73121026154571
 20
-0.6899046393457916
 30
0.0
 10
1.73121026154571
 20
-0.8419266687103825
 30
0.0
 10
1.84205967557639
 20
-0.9670281744225929
 30
0.0
 10
1.987747428547386
 20
-0.9907816202862957
 30
0.0
 10
1.987747428547386
 20
-0.9907816202862957
 30
0.0
 10
1.987747428547386
 20
-1.259987340075188
 30
0.0
 10
1.987747428547386
 20
-1.259987340075188
 30
0.0
 10
1.987747428547386
 20
-1.440513552802738
 30
0.0
 10
2.135018841229011
 20
-1.587784844668047
 30
0.0
 10
2.31554493314027
 20
-1.587784844668047
 30
0.0
 10
2.443813637457424
 20
-1.587784844668047
 30
0.0
 10
2.548328654278268
 20
-1.692299982305182
 30
0.0
 10
2.548328654278268
 20
-1.820568565806045
 30
0.0
 10
2.548328654278268
 20
-2.00109465771733
 30
0.0
 10
2.695600066959868
 20
-2.146782652320881
 30
0.0
 10
2.876126158871128
 20
-2.146782652320881
 30
0.0
 10
3.004394863188256
 20
-2.146782652320881
 30
0.0
 10
3.108909880009125
 20
-2.251297910774257
 30
0.0
 10
3.108909880009125
 20
-2.379566373458854
 30
0.0
 10
3.108909880009125
 20
-2.450826711050013
 30
0.0
 10
3.077238618857488
 20
-2.514169233353287
 30
0.0
 10
3.026564649341379
 20
-2.556925387581487
 30
0.0
 10
2.985391913191228
 20
-2.51733631114194
 30
0.0
 10
2.93471794367517
 20
-2.491999205567633
 30
0.0
 10
2.882460314448407
 20
-2.477747234702393
 30
0.0
 10
2.868208343583193
 20
-2.422322527687028
 30
0.0
 10
2.841287578298306
 20
-2.37006489846034
 30
0.0
 10
2.796948005992059
 20
-2.327308744232116
 30
0.0
 10
2.757358929552538
 20
-2.287719667792594
 30
0.0
 10
2.709852037825057
 20
-2.260799144140214
 30
0.0
 10
2.659178068308973
 20
-2.244963513564446
 30
0.0
 10
2.644926097443734
 20
-2.194289544048287
 30
0.0
 10
2.618005332158822
 20
-2.146782652320881
 30
0.0
 10
2.576832837641228
 20
-2.10719357588136
 30
0.0
 10
2.534076683413029
 20
-2.064437421653111
 30
0.0
 10
2.483402713896971
 20
-2.03751689800073
 30
0.0
 10
2.429561424959653
 20
-2.02326468550301
 30
0.0
 10
2.415309454094439
 20
-1.969423638198249
 30
0.0
 10
2.388388688809502
 20
-1.918749427049584
 30
0.0
 10
2.345632534581303
 20
-1.87599327282141
 30
0.0
 10
2.304459798431152
 20
-1.834820536671234
 30
0.0
 10
2.255369488625673
 20
-1.807900013018878
 30
0.0
 10
2.20311185939896
 20
-1.793648042153664
 30
0.0
 10
2.188859888533746
 20
-1.741390412926977
 30
0.0
 10
2.161939244065125
 20
-1.692299982305182
 30
0.0
 10
2.12076662873124
 20
-1.651127366971322
 30
0.0
 10
2.078010474503015
 20
-1.608371212743123
 30
0.0
 10
2.024169306382039
 20
-1.579867029380138
 30
0.0
 10
1.968744599366649
 20
-1.565614937698658
 30
0.0
 10
1.954492507685169
 20
-1.510190230683293
 30
0.0
 10
1.927571984032789
 20
-1.456349062562266
 30
0.0
 10
1.88323217009401
 20
-1.413592908334092
 30
0.0
 10
1.843643093654439
 20
-1.374003831894546
 30
0.0
 10
1.796136201927008
 20
-1.347083308242165
 30
0.0
 10
1.745462232410899
 20
-1.332831216560685
 30
0.0
 10
1.73121014072942
 20
-1.282157247044577
 30
0.0
 10
1.704289617077014
 20
-1.234650355317121
 30
0.0
 10
1.664700540637492
 20
-1.195061278877599
 30
0.0
 10
1.538015496030968
 20
-1.06837623427105
 30
0.0
 10
1.33373583743969
 20
-1.06837623427105
 30
0.0
 10
1.20863445254377
 20
-1.195061278877599
 30
0.0
 10
1.20863445254377
 20
-1.195061278877599
 30
0.0
 10
1.664700661453758
 20
-1.651127366971322
 30
0.0
 10
1.664700661453758
 20
-1.651127366971322
 30
0.0
 10
1.664700661453758
 20
-1.651127366971322
 30
0.0
 10
2.005166718833784
 20
-1.991593424351322
 30
0.0
 10
2.005166718833784
 20
-1.991593424351322
 30
0.0
 10
2.005166718833784
 20
-1.991593424351322
 30
0.0
 10
2.345632776213885
 20
-2.332059481731423
 30
0.0
 10
2.345632776213885
 20
-2.332059481731423
 30
0.0
 10
2.345632776213885
 20
-2.332059481731423
 30
0.0
 10
2.345632776213885
 20
-2.332059481731423
 30
0.0
 10
2.345632776213885
 20
-2.332059481731423
 30
0.0
 10
2.345632776213885
 20
-2.332059481731423
 30
0.0
 10
2.576833079273759
 20
-2.563259784791348
 30
0.0
 10
2.576833079273759
 20
-2.563259784791348
 30
0.0
 10
2.576833079273759
 20
-2.563259784791348
 30
0.0
 10
2.576833079273759
 20
-2.563259784791348
 30
0.0
 10
2.576833079273759
 20
-2.563259784791348
 30
0.0
 10
2.576833079273759
 20
-2.563259784791348
 30
0.0
 10
2.576833079273759
 20
-2.563259784791348
 30
0.0
 10
2.576833079273759
 20
-2.563259784791348
 30
0.0
 10
2.576833079273759
 20
-2.563259784791348
 30
0.0
 10
2.576833079273759
 20
-2.563259784791348
 30
0.0
 10
2.576833079273759
 20
-2.563259784791348
 30
0.0
 10
2.576833079273759
 20
-2.563259784791348
 30
0.0
 10
3.032899288183823
 20
-3.019325993701361
 30
0.0
 10
3.032899288183823
 20
-3.019325993701361
 30
0.0
 10
3.137414546637198
 20
-2.91481073524791
 30
0.0
 10
3.154833595291039
 20
-2.754871011411726
 30
0.0
 10
3.085156917410485
 20
-2.631353044593829
 30
0.0
 10
3.158000431447135
 20
-2.571177600079232
 30
0.0
 10
3.203923663463986
 20
-2.480914554123551
 30
0.0
 10
3.203923663463986
 20
-2.379566373458854
 30
0.0
  0
SPLINE
  5
50
330
41
100
AcDbEntity
  8
Layer 1
370
     0
100
AcDbSpline
210
0.0
220
0.0
230
1.0
 70
    11
 71
     3
 72
    53
 73
    49
 74
     0
 42
0.0000000001
 43
0.0000000001
 12
1.0
 22
0.0
 32
0.0
 13
1.0
 23
0.0
 33
0.0
 40
0.0
 40
0.0
 40
0.0
 40
0.0
 40
1.0
 40
1.0
 40
1.0
 40
2.0
 40
2.0
 40
2.0
 40
3.0
 40
3.0
 40
3.0
 40
4.0
 40
4.0
 40
4.0
 40
5.0
 40
5.0
 40
5.0
 40
6.0
 40
6.0
 40
6.0
 40
7.0
 40
7.0
 40
7.0
 40
8.0
 40
8.0
 40
8.0
 40
9.0
 40
9.0
 40
9.0
 40
10.0
 40
10.0
 40
10.0
 40
11.0
 40
11.0
 40
11.0
 40
12.0
 40
12.0
 40
12.0
 40
13.0
 40
13.0
 40
13.0
 40
14.0
 40
14.0
 40
14.0
 40
15.0
 40
15.0
 40
15.0
 40
16.0
 40
16.0
 40
16.0
 40
16.0
 10
2.038421277247228
 20
-0.8561787603918622
 30
0.0
 10
2.011500753594873
 20
-0.8561787603918622
 30
0.0
 10
1.990914385519798
 20
-0.8355923923167867
 30
0.0
 10
1.990914385519798
 20
-0.8086718686644315
 30
0.0
 10
1.990914385519798
 20
-0.8086718686644315
 30
0.0
 10
1.990914385519798
 20
-0.7421622081643716
 30
0.0
 10
1.990914385519798
 20
-0.7421622081643716
 30
0.0
 10
1.990914385519798
 20
-0.7421622081643716
 30
0.0
 10
1.924404785427845
 20
-0.7421622081643716
 30
0.0
 10
1.924404785427845
 20
-0.7421622081643716
 30
0.0
 10
1.897484261775465
 20
-0.7421622081643716
 30
0.0
 10
1.876897893700415
 20
-0.7215759004974289
 30
0.0
 10
1.876897893700415
 20
-0.6946553164369157
 30
0.0
 10
1.876897893700415
 20
-0.6677347323764025
 30
0.0
 10
1.897484261775465
 20
-0.6471484247094597
 30
0.0
 10
1.924404785427845
 20
-0.6471484247094597
 30
0.0
 10
1.924404785427845
 20
-0.6471484247094597
 30
0.0
 10
1.990914385519798
 20
-0.6471484247094597
 30
0.0
 10
1.990914385519798
 20
-0.6471484247094597
 30
0.0
 10
1.990914385519798
 20
-0.6471484247094597
 30
0.0
 10
1.990914385519798
 20
-0.5806387642094251
 30
0.0
 10
1.990914385519798
 20
-0.5806387642094251
 30
0.0
 10
1.990914385519798
 20
-0.5537181801489118
 30
0.0
 10
2.011500753594873
 20
-0.533131872481969
 30
0.0
 10
2.038421277247228
 20
-0.533131872481969
 30
0.0
 10
2.065341800899584
 20
-0.533131872481969
 30
0.0
 10
2.085928168974659
 20
-0.5537181801489118
 30
0.0
 10
2.085928168974659
 20
-0.5806387642094251
 30
0.0
 10
2.085928168974659
 20
-0.5806387642094251
 30
0.0
 10
2.085928168974659
 20
-0.6471484247094597
 30
0.0
 10
2.085928168974659
 20
-0.6471484247094597
 30
0.0
 10
2.085928168974659
 20
-0.6471484247094597
 30
0.0
 10
2.152437769066561
 20
-0.6471484247094597
 30
0.0
 10
2.152437769066561
 20
-0.6471484247094597
 30
0.0
 10
2.179358413535258
 20
-0.6471484247094597
 30
0.0
 10
2.199944781610308
 20
-0.6677347323764025
 30
0.0
 10
2.199944781610308
 20
-0.6946553164369157
 30
0.0
 10
2.199944781610308
 20
-0.7215759004974289
 30
0.0
 10
2.179358413535258
 20
-0.7421622081643716
 30
0.0
 10
2.152437889882877
 20
-0.7421622081643716
 30
0.0
 10
2.152437889882877
 20
-0.7421622081643716
 30
0.0
 10
2.08592828979095
 20
-0.7421622081643716
 30
0.0
 10
2.08592828979095
 20
-0.7421622081643716
 30
0.0
 10
2.08592828979095
 20
-0.7421622081643716
 30
0.0
 10
2.08592828979095
 20
-0.8086718686644315
 30
0.0
 10
2.08592828979095
 20
-0.8086718686644315
 30
0.0
 10
2.085928168974659
 20
-0.8340088534224731
 30
0.0
 10
2.065341800899584
 20
-0.8561787603918622
 30
0.0
 10
2.038421277247228
 20
-0.8561787603918622
 30
0.0
  0
HATCH
  5
51
330
41
100
AcDbEntity
  8
Layer 1
 62
     7
420
 16777215
100
AcDbHatch
 10
0.0
 20
0.0
 30
0.0
210
0.0
220
0.0
230
1.0
  2
SOLID
 70
     1
 71
     0
 91
        2
 92
        1
 93
        1
 72
     4
 94
        3
 73
     0
 74
     1
 95
      122
 96
      118
 40
0.0
 40
0.0
 40
0.0
 40
0.0
 40
1.0
 40
1.0
 40
1.0
 40
2.0
 40
2.0
 40
2.0
 40
3.0
 40
3.0
 40
3.0
 40
4.0
 40
4.0
 40
4.0
 40
5.0
 40
5.0
 40
5.0
 40
6.0
 40
6.0
 40
6.0
 40
7.0
 40
7.0
 40
7.0
 40
8.0
 40
8.0
 40
8.0
 40
9.0
 40
9.0
 40
9.0
 40
10.0
 40
10.0
 40
10.0
 40
11.0
 40
11.0
 40
11.0
 40
12.0
 40
12.0
 40
12.0
 40
13.0
 40
13.0
 40
13.0
 40
14.0
 40
14.0
 40
14.0
 40
15.0
 40
15.0
 40
15.0
 40
16.0
 40
16.0
 40
16.0
 40
17.0
 40
17.0
 40
17.0
 40
18.0
 40
18.0
 40
18.0
 40
19.0
 40
19.0
 40
19.0
 40
20.0
 40
20.0
 40
20.0
 40
21.0
 40
21.0
 40
21.0
 40
22.0
 40
22.0
 40
22.0
 40
23.0
 40
23.0
 40
23.0
 40
24.0
 40
24.0
 40
24.0
 40
25.0
 40
25.0
 40
25.0
 40
26.0
 40
26.0
 40
26.0
 40
27.0
 40
27.0
 40
27.0
 40
28.0
 40
28.0
 40
28.0
 40
29.0
 40
29.0
 40
29.0
 40
30.0
 40
30.0
 40
30.0
 40
31.0
 40
31.0
 40
31.0
 40
32.0
 40
32.0
 40
32.0
 40
33.0
 40
33.0
 40
33.0
 40
34.0
 40
34.0
 40
34.0
 40
35.0
 40
35.0
 40
35.0
 40
36.0
 40
36.0
 40
36.0
 40
37.0
 40
37.0
 40
37.0
 40
38.0
 40
38.0
 40
38.0
 40
39.0
 40
39.0
 40
39.0
 40
39.0
 10
3.203923663463986
 20
-2.379566373458854
 10
3.203923663463986
 20
-2.199040281547569
 10
3.056652250782438
 20
-2.051768868865995
 10
2.876126158871128
 20
-2.051768868865995
 10
2.747857454553973
 20
-2.051768868865995
 10
2.643342437733129
 20
-1.947253610412544
 10
2.643342437733129
 20
-1.820568565806045
 10
2.643342437733129
 20
-1.640042353078494
 10
2.49607102505153
 20
-1.49277106121316
 10
2.31554493314027
 20
-1.49277106121316
 10
2.187276228823117
 20
-1.49277106121316
 10
2.082761212002272
 20
-1.388255923576051
 10
2.082761212002272
 20
-1.259987340075188
 10
2.082761212002272
 20
-1.259987340075188
 10
2.082761212002272
 20
-0.9907816202862957
 10
2.082761212002272
 20
-0.9907816202862957
 10
2.228448964973293
 20
-0.9686117133169065
 10
2.339298379004024
 20
-0.8419266687103825
 10
2.339298379004024
 20
-0.6899046393457916
 10
2.339298379004024
 20
-0.5220469794054072
 10
2.20311185939896
 20
-0.3858605202085022
 10
2.035254320274842
 20
-0.3858605202085022
 10
1.867396781150698
 20
-0.3858605202085022
 10
1.73121026154571
 20
-0.5220469794054072
 10
1.73121026154571
 20
-0.6899046393457916
 10
1.73121026154571
 20
-0.8419266687103825
 10
1.84205967557639
 20
-0.9670281744225929
 10
1.987747428547386
 20
-0.9907816202862957
 10
1.987747428547386
 20
-0.9907816202862957
 10
1.987747428547386
 20
-1.259987340075188
 10
1.987747428547386
 20
-1.259987340075188
 10
1.987747428547386
 20
-1.440513552802738
 10
2.135018841229011
 20
-1.587784844668047
 10
2.31554493314027
 20
-1.587784844668047
 10
2.443813637457424
 20
-1.587784844668047
 10
2.548328654278268
 20
-1.692299982305182
 10
2.548328654278268
 20
-1.820568565806045
 10
2.548328654278268
 20
-2.00109465771733
 10
2.695600066959868
 20
-2.146782652320881
 10
2.876126158871128
 20
-2.146782652320881
 10
3.004394863188256
 20
-2.146782652320881
 10
3.108909880009125
 20
-2.251297910774257
 10
3.108909880009125
 20
-2.379566373458854
 10
3.108909880009125
 20
-2.450826711050013
 10
3.077238618857488
 20
-2.514169233353287
 10
3.026564649341379
 20
-2.556925387581487
 10
2.985391913191228
 20
-2.51733631114194
 10
2.93471794367517
 20
-2.491999205567633
 10
2.882460314448407
 20
-2.477747234702393
 10
2.868208343583193
 20
-2.422322527687028
 10
2.841287578298306
 20
-2.37006489846034
 10
2.796948005992059
 20
-2.327308744232116
 10
2.757358929552538
 20
-2.287719667792594
 10
2.709852037825057
 20
-2.260799144140214
 10
2.659178068308973
 20
-2.244963513564446
 10
2.644926097443734
 20
-2.194289544048287
 10
2.618005332158822
 20
-2.146782652320881
 10
2.576832837641228
 20
-2.10719357588136
 10
2.534076683413029
 20
-2.064437421653111
 10
2.483402713896971
 20
-2.03751689800073
 10
2.429561424959653
 20
-2.02326468550301
 10
2.415309454094439
 20
-1.969423638198249
 10
2.388388688809502
 20
-1.918749427049584
 10
2.345632534581303
 20
-1.87599327282141
 10
2.304459798431152
 20
-1.834820536671234
 10
2.255369488625673
 20
-1.807900013018878
 10
2.20311185939896
 20
-1.793648042153664
 10
2.188859888533746
 20
-1.741390412926977
 10
2.161939244065125
 20
-1.692299982305182
 10
2.12076662873124
 20
-1.651127366971322
 10
2.078010474503015
 20
-1.608371212743123
 10
2.024169306382039
 20
-1.579867029380138
 10
1.968744599366649
 20
-1.565614937698658
 10
1.954492507685169
 20
-1.510190230683293
 10
1.927571984032789
 20
-1.456349062562266
 10
1.88323217009401
 20
-1.413592908334092
 10
1.843643093654439
 20
-1.374003831894546
 10
1.796136201927008
 20
-1.347083308242165
 10
1.745462232410899
 20
-1.332831216560685
 10
1.73121014072942
 20
-1.282157247044577
 10
1.704289617077014
 20
-1.234650355317121
 10
1.664700540637492
 20
-1.195061278877599
 10
1.538015496030968
 20
-1.06837623427105
 10
1.33373583743969
 20
-1.06837623427105
 10
1.20863445254377
 20
-1.195061278877599
 10
1.20863445254377
 20
-1.195061278877599
 10
1.664700661453758
 20
-1.651127366971322
 10
1.664700661453758
 20
-1.651127366971322
 10
1.664700661453758
 20
-1.651127366971322
 10
2.005166718833784
 20
-1.991593424351322
 10
2.005166718833784
 20
-1.991593424351322
 10
2.005166718833784
 20
-1.991593424351322
 10
2.345632776213885
 20
-2.332059481731423
 10
2.345632776213885
 20
-2.332059481731423
 10
2.345632776213885
 20
-2.332059481731423
 10
2.345632776213885
 20
-2.332059481731423
 10
2.345632776213885
 20
-2.332059481731423
 10
2.345632776213885
 20
-2.332059481731423
 10
2.576833079273759
 20
-2.563259784791348
 10
2.576833079273759
 20
-2.563259784791348
 10
2.576833079273759
 20
-2.563259784791348
 10
2.576833079273759
 20
-2.563259784791348
 10
2.576833079273759
 20
-2.563259784791348
 10
2.576833079273759
 20
-2.563259784791348
 10
2.576833079273759
 20
-2.563259784791348
 10
2.576833079273759
 20
-2.563259784791348
 10
2.576833079273759
 20
-2.563259784791348
 10
2.576833079273759
 20
-2.563259784791348
 10
2.576833079273759
 20
-2.563259784791348
 10
2.576833079273759
 20
-2.563259784791348
 10
3.032899288183823
 20
-3.019325993701361
 10
3.032899288183823
 20
-3.019325993701361
 10
3.137414546637198
 20
-2.91481073524791
 10
3.154833595291039
 20
-2.754871011411726
 10
3.085156917410485
 20
-2.631353044593829
 10
3.158000431447135
 20
-2.571177600079232
 10
3.203923663463986
 20
-2.480914554123551
 10
3.203923663463986
 20
-2.379566373458854
 97
        0
 97
        0
 92
        1
 93
        1
 72
     4
 94
        3
 73
     0
 74
     1
 95
       53
 96
       49
 40
0.0
 40
0.0
 40
0.0
 40
0.0
 40
1.0
 40
1.0
 40
1.0
 40
2.0
 40
2.0
 40
2.0
 40
3.0
 40
3.0
 40
3.0
 40
4.0
 40
4.0
 40
4.0
 40
5.0
 40
5.0
 40
5.0
 40
6.0
 40
6.0
 40
6.0
 40
7.0
 40
7.0
 40
7.0
 40
8.0
 40
8.0
 40
8.0
 40
9.0
 40
9.0
 40
9.0
 40
10.0
 40
10.0
 40
10.0
 40
11.0
 40
11.0
 40
11.0
 40
12.0
 40
12.0
 40
12.0
 40
13.0
 40
13.0
 40
13.0
 40
14.0
 40
14.0
 40
14.0
 40
15.0
 40
15.0
 40
15.0
 40
16.0
 40
16.0
 40
16.0
 40
16.0
 10
2.038421277247228
 20
-0.8561787603918622
 10
2.011500753594873
 20
-0.8561787603918622
 10
1.990914385519798
 20
-0.8355923923167867
 10
1.990914385519798
 20
-0.8086718686644315
 10
1.990914385519798
 20
-0.8086718686644315
 10
1.990914385519798
 20
-0.7421622081643716
 10
1.990914385519798
 20
-0.7421622081643716
 10
1.990914385519798
 20
-0.7421622081643716
 10
1.924404785427845
 20
-0.7421622081643716
 10
1.924404785427845
 20
-0.7421622081643716
 10
1.897484261775465
 20
-0.7421622081643716
 10
1.876897893700415
 20
-0.7215759004974289
 10
1.876897893700415
 20
-0.6946553164369157
 10
1.876897893700415
 20
-0.6677347323764025
 10
1.897484261775465
 20
-0.6471484247094597
 10
1.924404785427845
 20
-0.6471484247094597
 10
1.924404785427845
 20
-0.6471484247094597
 10
1.990914385519798
 20
-0.6471484247094597
 10
1.990914385519798
 20
-0.6471484247094597
 10
1.990914385519798
 20
-0.6471484247094597
 10
1.990914385519798
 20
-0.5806387642094251
 10
1.990914385519798
 20
-0.5806387642094251
 10
1.990914385519798
 20
-0.5537181801489118
 10
2.011500753594873
 20
-0.533131872481969
 10
2.038421277247228
 20
-0.533131872481969
 10
2.065341800899584
 20
-0.533131872481969
 10
2.085928168974659
 20
-0.5537181801489118
 10
2.085928168974659
 20
-0.5806387642094251
 10
2.085928168974659
 20
-0.5806387642094251
 10
2.085928168974659
 20
-0.6471484247094597
 10
2.085928168974659
 20
-0.6471484247094597
 10
2.085928168974659
 20
-0.6471484247094597
 10
2.152437769066561
 20
-0.6471484247094597
 10
2.152437769066561
 20
-0.6471484247094597
 10
2.179358413535258
 20
-0.6471484247094597
 10
2.199944781610308
 20
-0.6677347323764025
 10
2.199944781610308
 20
-0.6946553164369157
 10
2.199944781610308
 20
-0.7215759004974289
 10
2.179358413535258
 20
-0.7421622081643716
 10
2.152437889882877
 20
-0.7421622081643716
 10
2.152437889882877
 20
-0.7421622081643716
 10
2.08592828979095
 20
-0.7421622081643716
 10
2.08592828979095
 20
-0.7421622081643716
 10
2.08592828979095
 20
-0.7421622081643716
 10
2.08592828979095
 20
-0.8086718686644315
 10
2.08592828979095
 20
-0.8086718686644315
 10
2.085928168974659
 20
-0.8340088534224731
 10
2.065341800899584
 20
-0.8561787603918622
 10
2.038421277247228
 20
-0.8561787603918622
 97
        0
 97
        0
 75
     2
 76
     1
 98
        0
  0
SPLINE
  5
52
330
41
100
AcDbEntity
  8
Layer 1
370
     0
100
AcDbSpline
210
0.0
220
0.0
230
1.0
 70
    11
 71
     3
 72
    50
 73
    46
 74
     0
 42
0.0000000001
 43
0.0000000001
 12
1.0
 22
0.0
 32
0.0
 13
1.0
 23
0.0
 33
0.0
 40
0.0
 40
0.0
 40
0.0
 40
0.0
 40
1.0
 40
1.0
 40
1.0
 40
2.0
 40
2.0
 40
2.0
 40
3.0
 40
3.0
 40
3.0
 40
4.0
 40
4.0
 40
4.0
 40
5.0
 40
5.0
 40
5.0
 40
6.0
 40
6.0
 40
6.0
 40
7.0
 40
7.0
 40
7.0
 40
8.0
 40
8.0
 40
8.0
 40
9.0
 40
9.0
 40
9.0
 40
10.0
 40
10.0
 40
10.0
 40
11.0
 40
11.0
 40
11.0
 40
12.0
 40
12.0
 40
12.0
 40
13.0
 40
13.0
 40
13.0
 40
14.0
 40
14.0
 40
14.0
 40
15.0
 40
15.0
 40
15.0
 40
15.0
 10
1.306815072154753
 20
-2.040683975789408
 30
0.0
 10
1.240305472062851
 20
-1.974174375697506
 30
0.0
 10
1.145291628199806
 20
-1.952004347911801
 30
0.0
 10
1.059779259335301
 20
-1.972590715986876
 30
0.0
 10
1.088283382290127
 20
-1.923500164548841
 30
0.0
 10
1.104119012865946
 20
-1.868075457533475
 30
0.0
 10
1.104119012865946
 20
-1.809483672729483
 30
0.0
 10
1.104119012865946
 20
-1.72238770456248
 30
0.0
 10
1.07086421282002
 20
-1.64004247389476
 30
0.0
 10
1.009105229411059
 20
-1.578283490485824
 30
0.0
 10
1.009105229411059
 20
-1.578283490485824
 30
0.0
 10
1.009105229411059
 20
-1.578283490485824
 30
0.0
 10
1.009105229411059
 20
-1.578283490485824
 30
0.0
 10
0.9188421230472714
 20
-1.488020444530194
 30
0.0
 10
0.9188421230472714
 20
-1.340749031848569
 30
0.0
 10
1.009105229411059
 20
-1.250485865076674
 30
0.0
 10
1.028107998183663
 20
-1.231483156712203
 30
0.0
 10
1.028107998183663
 20
-1.201395434454879
 30
0.0
 10
1.009105229411059
 20
-1.183976264984747
 30
0.0
 10
0.9901024606384301
 20
-1.164973556620276
 30
0.0
 10
0.9600147987892644
 20
-1.164973556620276
 30
0.0
 10
0.9425955689109994
 20
-1.183976264984747
 30
0.0
 10
0.8143269854101365
 20
-1.31224484848561
 30
0.0
 10
0.8143269854101365
 20
-1.518108045971202
 30
0.0
 10
0.9425955689109994
 20
-1.646376629472065
 30
0.0
 10
0.9425955689109994
 20
-1.646376629472065
 30
0.0
 10
0.9425955689109994
 20
-1.646376629472065
 30
0.0
 10
0.9425955689109994
 20
-1.646376629472065
 30
0.0
 10
0.9869353224416701
 20
-1.690716443410843
 30
0.0
 10
1.010688768305398
 20
-1.747724689320547
 30
0.0
 10
1.010688768305398
 20
-1.811067211623797
 30
0.0
 10
1.010688768305398
 20
-1.872826195032733
 30
0.0
 10
0.9869353224416701
 20
-1.931417979836725
 30
0.0
 10
0.9425955689109994
 20
-1.975757793775554
 30
0.0
 10
0.9235928001383955
 20
-1.99476050214
 30
0.0
 10
0.9235928001383955
 20
-2.024848345213564
 30
0.0
 10
0.9425955689109994
 20
-2.042267393867431
 30
0.0
 10
0.9425955689109994
 20
-2.042267393867431
 30
0.0
 10
0.9441791078053382
 20
-2.042267393867431
 30
0.0
 10
0.9441791078053382
 20
-2.04385105357806
 30
0.0
 10
0.9441791078053382
 20
-2.04385105357806
 30
0.0
 10
1.309982149943431
 20
-2.409654216532393
 30
0.0
 10
1.309982149943431
 20
-2.409654216532393
 30
0.0
 10
1.408163132003235
 20
-2.305138958079043
 30
0.0
 10
1.408163132003235
 20
-2.142031914821599
 30
0.0
 10
1.306815072154753
 20
-2.040683975789408
 30
0.0
  0
HATCH
  5
53
330
41
100
AcDbEntity
  8
Layer 1
 62
     7
420
 16777215
100
AcDbHatch
 10
0.0
 20
0.0
 30
0.0
210
0.0
220
0.0
230
1.0
  2
SOLID
 70
     1
 71
     0
 91
        1
 92
        1
 93
        1
 72
     4
 94
        3
 73
     0
 74
     1
 95
       50
 96
       46
 40
0.0
 40
0.0
 40
0.0
 40
0.0
 40
1.0
 40
1.0
 40
1.0
 40
2.0
 40
2.0
 40
2.0
 40
3.0
 40
3.0
 40
3.0
 40
4.0
 40
4.0
 40
4.0
 40
5.0
 40
5.0
 40
5.0
 40
6.0
 40
6.0
 40
6.0
 40
7.0
 40
7.0
 40
7.0
 40
8.0
 40
8.0
 40
8.0
 40
9.0
 40
9.0
 40
9.0
 40
10.0
 40
10.0
 40
10.0
 40
11.0
 40
11.0
 40
11.0
 40
12.0
 40
12.0
 40
12.0
 40
13.0
 40
13.0
 40
13.0
 40
14.0
 40
14.0
 40
14.0
 40
15.0
 40
15.0
 40
15.0
 40
15.0
 10
1.306815072154753
 20
-2.040683975789408
 10
1.240305472062851
 20
-1.974174375697506
 10
1.145291628199806
 20
-1.952004347911801
 10
1.059779259335301
 20
-1.972590715986876
 10
1.088283382290127
 20
-1.923500164548841
 10
1.104119012865946
 20
-1.868075457533475
 10
1.104119012865946
 20
-1.809483672729483
 10
1.104119012865946
 20
-1.72238770456248
 10
1.07086421282002
 20
-1.64004247389476
 10
1.009105229411059
 20
-1.578283490485824
 10
1.009105229411059
 20
-1.578283490485824
 10
1.009105229411059
 20
-1.578283490485824
 10
1.009105229411059
 20
-1.578283490485824
 10
0.9188421230472714
 20
-1.488020444530194
 10
0.9188421230472714
 20
-1.340749031848569
 10
1.009105229411059
 20
-1.250485865076674
 10
1.028107998183663
 20
-1.231483156712203
 10
1.028107998183663
 20
-1.201395434454879
 10
1.009105229411059
 20
-1.183976264984747
 10
0.9901024606384301
 20
-1.164973556620276
 10
0.9600147987892644
 20
-1.164973556620276
 10
0.9425955689109994
 20
-1.183976264984747
 10
0.8143269854101365
 20
-1.31224484848561
 10
0.8143269854101365
 20
-1.518108045971202
 10
0.9425955689109994
 20
-1.646376629472065
 10
0.9425955689109994
 20
-1.646376629472065
 10
0.9425955689109994
 20
-1.646376629472065
 10
0.9425955689109994
 20
-1.646376629472065
 10
0.9869353224416701
 20
-1.690716443410843
 10
1.010688768305398
 20
-1.747724689320547
 10
1.010688768305398
 20
-1.811067211623797
 10
1.010688768305398
 20
-1.872826195032733
 10
0.9869353224416701
 20
-1.931417979836725
 10
0.9425955689109994
 20
-1.975757793775554
 10
0.9235928001383955
 20
-1.99476050214
 10
0.9235928001383955
 20
-2.024848345213564
 10
0.9425955689109994
 20
-2.042267393867431
 10
0.9425955689109994
 20
-2.042267393867431
 10
0.9441791078053382
 20
-2.042267393867431
 10
0.9441791078053382
 20
-2.04385105357806
 10
0.9441791078053382
 20
-2.04385105357806
 10
1.309982149943431
 20
-2.409654216532393
 10
1.309982149943431
 20
-2.409654216532393
 10
1.408163132003235
 20
-2.305138958079043
 10
1.408163132003235
 20
-2.142031914821599
 10
1.306815072154753
 20
-2.040683975789408
 97
        0
 97
        0
 75
     2
 76
     1
 98
        0
  0
SPLINE
  5
54
330
41
100
AcDbEntity
  8
Layer 1
370
     0
100
AcDbSpline
210
0.0
220
0.0
230
1.0
 70
    11
 71
     3
 72
    80
 73
    76
 74
     0
 42
0.0000000001
 43
0.0000000001
 12
1.0
 22
0.0
 32
0.0
 13
1.0
 23
0.0
 33
0.0
 40
0.0
 40
0.0
 40
0.0
 40
0.0
 40
1.0
 40
1.0
 40
1.0
 40
2.0
 40
2.0
 40
2.0
 40
3.0
 40
3.0
 40
3.0
 40
4.0
 40
4.0
 40
4.0
 40
5.0
 40
5.0
 40
5.0
 40
6.0
 40
6.0
 40
6.0
 40
7.0
 40
7.0
 40
7.0
 40
8.0
 40
8.0
 40
8.0
 40
9.0
 40
9.0
 40
9.0
 40
10.0
 40
10.0
 40
10.0
 40
11.0
 40
11.0
 40
11.0
 40
12.0
 40
12.0
 40
12.0
 40
13.0
 40
13.0
 40
13.0
 40
14.0
 40
14.0
 40
14.0
 40
15.0
 40
15.0
 40
15.0
 40
16.0
 40
16.0
 40
16.0
 40
17.0
 40
17.0
 40
17.0
 40
18.0
 40
18.0
 40
18.0
 40
19.0
 40
19.0
 40
19.0
 40
20.0
 40
20.0
 40
20.0
 40
21.0
 40
21.0
 40
21.0
 40
22.0
 40
22.0
 40
22.0
 40
23.0
 40
23.0
 40
23.0
 40
24.0
 40
24.0
 40
24.0
 40
25.0
 40
25.0
 40
25.0
 40
25.0
 10
0.8095763083190124
 20
-1.578283490485824
 30
0.0
 10
0.8095763083190124
 20
-1.578283490485824
 30
0.0
 10
0.8095763083190124
 20
-1.578283490485824
 30
0.0
 10
0.8095763083190124
 20
-1.578283490485824
 30
0.0
 10
0.7652365547883669
 20
-1.53394367654702
 30
0.0
 10
0.7414831089246389
 20
-1.475351891743028
 30
0.0
 10
0.7414831089246389
 20
-1.413592908334092
 30
0.0
 10
0.7414831089246389
 20
-1.351833924925156
 30
0.0
 10
0.7652365547883669
 20
-1.293242140121139
 30
0.0
 10
0.8095763083190124
 20
-1.248902326182335
 30
0.0
 10
0.8095763083190124
 20
-1.248902326182335
 30
0.0
 10
0.8095763083190124
 20
-1.248902326182335
 30
0.0
 10
0.8095763083190124
 20
-1.248902326182335
 30
0.0
 10
0.9267599987433388
 20
-1.131718635758059
 30
0.0
 10
0.936261352925587
 20
-0.948025345241831
 30
0.0
 10
0.8380804312738644
 20
-0.8197567617409933
 30
0.0
 10
0.8380804312738644
 20
-0.8197567617409933
 30
0.0
 10
1.246639627640156
 20
-0.8197567617409933
 30
0.0
 10
1.246639627640156
 20
-0.8197567617409933
 30
0.0
 10
1.246639627640156
 20
-0.6772360865586253
 30
0.0
 10
1.131039536518326
 20
-0.5600523961343494
 30
0.0
 10
0.9869352620335121
 20
-0.5600523961343494
 30
0.0
 10
0.8444145868511946
 20
-0.5600523961343494
 30
0.0
 10
0.7272308964268682
 20
-0.675652487256179
 30
0.0
 10
0.7272308964268682
 20
-0.8197567617409933
 30
0.0
 10
0.7272308964268682
 20
-0.8197567617409933
 30
0.0
 10
0.7272308964268682
 20
-0.8197567617409933
 30
0.0
 10
0.7272308964268682
 20
-0.8197567617409933
 30
0.0
 10
0.7272308964268682
 20
-0.8324253145281343
 30
0.0
 10
0.7319815735179923
 20
-0.8435102076046961
 30
0.0
 10
0.7414829881083733
 20
-0.8530115617869443
 30
0.0
 10
0.8317460944721359
 20
-0.9432746077425741
 30
0.0
 10
0.8317460944721359
 20
-1.090546020424174
 30
0.0
 10
0.7414829881083733
 20
-1.18080918719612
 30
0.0
 10
0.7414829881083733
 20
-1.18080918719612
 30
0.0
 10
0.7414829881083733
 20
-1.18080918719612
 30
0.0
 10
0.7414829881083733
 20
-1.18080918719612
 30
0.0
 10
0.6797240046994375
 20
-1.24256817060503
 30
0.0
 10
0.6464692046534866
 20
-1.324913401272751
 30
0.0
 10
0.6464692046534866
 20
-1.412009369439753
 30
0.0
 10
0.6464692046534866
 20
-1.499105337606731
 30
0.0
 10
0.6797240046994375
 20
-1.581450568274451
 30
0.0
 10
0.7414829881083733
 20
-1.643209551683438
 30
0.0
 10
0.7414829881083733
 20
-1.643209551683438
 30
0.0
 10
0.7414829881083733
 20
-1.643209551683438
 30
0.0
 10
0.7414829881083733
 20
-1.643209551683438
 30
0.0
 10
0.8317460944721359
 20
-1.733472597639042
 30
0.0
 10
0.8317460944721359
 20
-1.880744010320667
 30
0.0
 10
0.7414829881083733
 20
-1.971007056276272
 30
0.0
 10
0.7414829881083733
 20
-1.971007056276272
 30
0.0
 10
0.7414829881083733
 20
-1.971007056276272
 30
0.0
 10
0.7414829881083733
 20
-1.971007056276272
 30
0.0
 10
0.6797240046994375
 20
-2.032765918868967
 30
0.0
 10
0.6464692046534866
 20
-2.115111391169219
 30
0.0
 10
0.6464692046534866
 20
-2.202207359336196
 30
0.0
 10
0.6464692046534866
 20
-2.289303327503199
 30
0.0
 10
0.6797240046994375
 20
-2.371648558170945
 30
0.0
 10
0.7414829881083733
 20
-2.433407662396146
 30
0.0
 10
0.7509843422906215
 20
-2.44290913739466
 30
0.0
 10
0.7636528950777625
 20
-2.447659633261385
 30
0.0
 10
0.7747377881543495
 20
-2.447659633261385
 30
0.0
 10
0.7858226812308859
 20
-2.447659633261385
 30
0.0
 10
0.7984912340180522
 20
-2.442908895762129
 30
0.0
 10
0.8079925882003004
 20
-2.433407662396146
 30
0.0
 10
0.8143268645938708
 20
-2.427073506818816
 30
0.0
 10
0.8190775416849949
 20
-2.419155691530957
 30
0.0
 10
0.8206610805793085
 20
-2.411237876243022
 30
0.0
 10
0.922009140427791
 20
-2.503084581909257
 30
0.0
 10
1.078781846883481
 20
-2.499917504120604
 30
0.0
 10
1.176962708127045
 20
-2.401736401244509
 30
0.0
 10
1.176962708127045
 20
-2.401736401244509
 30
0.0
 10
0.8111596659889528
 20
-2.035933238290151
 30
0.0
 10
0.8111596659889528
 20
-2.035933238290151
 30
0.0
 10
0.936261352925587
 20
-1.910831853394206
 30
0.0
 10
0.936261352925587
 20
-1.704968535092348
 30
0.0
 10
0.8095763083190124
 20
-1.578283490485824
 30
0.0
  0
HATCH
  5
55
330
41
100
AcDbEntity
  8
Layer 1
 62
     7
420
 16777215
100
AcDbHatch
 10
0.0
 20
0.0
 30
0.0
210
0.0
220
0.0
230
1.0
  2
SOLID
 70
     1
 71
     0
 91
        1
 92
        1
 93
        1
 72
     4
 94
        3
 73
     0
 74
     1
 95
       80
 96
       76
 40
0.0
 40
0.0
 40
0.0
 40
0.0
 40
1.0
 40
1.0
 40
1.0
 40
2.0
 40
2.0
 40
2.0
 40
3.0
 40
3.0
 40
3.0
 40
4.0
 40
4.0
 40
4.0
 40
5.0
 40
5.0
 40
5.0
 40
6.0
 40
6.0
 40
6.0
 40
7.0
 40
7.0
 40
7.0
 40
8.0
 40
8.0
 40
8.0
 40
9.0
 40
9.0
 40
9.0
 40
10.0
 40
10.0
 40
10.0
 40
11.0
 40
11.0
 40
11.0
 40
12.0
 40
12.0
 40
12.0
 40
13.0
 40
13.0
 40
13.0
 40
14.0
 40
14.0
 40
14.0
 40
15.0
 40
15.0
 40
15.0
 40
16.0
 40
16.0
 40
16.0
 40
17.0
 40
17.0
 40
17.0
 40
18.0
 40
18.0
 40
18.0
 40
19.0
 40
19.0
 40
19.0
 40
20.0
 40
20.0
 40
20.0
 40
21.0
 40
21.0
 40
21.0
 40
22.0
 40
22.0
 40
22.0
 40
23.0
 40
23.0
 40
23.0
 40
24.0
 40
24.0
 40
24.0
 40
25.0
 40
25.0
 40
25.0
 40
25.0
 10
0.8095763083190124
 20
-1.578283490485824
 10
0.8095763083190124
 20
-1.578283490485824
 10
0.8095763083190124
 20
-1.578283490485824
 10
0.8095763083190124
 20
-1.578283490485824
 10
0.7652365547883669
 20
-1.53394367654702
 10
0.7414831089246389
 20
-1.475351891743028
 10
0.7414831089246389
 20
-1.413592908334092
 10
0.7414831089246389
 20
-1.351833924925156
 10
0.7652365547883669
 20
-1.293242140121139
 10
0.8095763083190124
 20
-1.248902326182335
 10
0.8095763083190124
 20
-1.248902326182335
 10
0.8095763083190124
 20
-1.248902326182335
 10
0.8095763083190124
 20
-1.248902326182335
 10
0.9267599987433388
 20
-1.131718635758059
 10
0.936261352925587
 20
-0.948025345241831
 10
0.8380804312738644
 20
-0.8197567617409933
 10
0.8380804312738644
 20
-0.8197567617409933
 10
1.246639627640156
 20
-0.8197567617409933
 10
1.246639627640156
 20
-0.8197567617409933
 10
1.246639627640156
 20
-0.6772360865586253
 10
1.131039536518326
 20
-0.5600523961343494
 10
0.9869352620335121
 20
-0.5600523961343494
 10
0.8444145868511946
 20
-0.5600523961343494
 10
0.7272308964268682
 20
-0.675652487256179
 10
0.7272308964268682
 20
-0.8197567617409933
 10
0.7272308964268682
 20
-0.8197567617409933
 10
0.7272308964268682
 20
-0.8197567617409933
 10
0.7272308964268682
 20
-0.8197567617409933
 10
0.7272308964268682
 20
-0.8324253145281343
 10
0.7319815735179923
 20
-0.8435102076046961
 10
0.7414829881083733
 20
-0.8530115617869443
 10
0.8317460944721359
 20
-0.9432746077425741
 10
0.8317460944721359
 20
-1.090546020424174
 10
0.7414829881083733
 20
-1.18080918719612
 10
0.7414829881083733
 20
-1.18080918719612
 10
0.7414829881083733
 20
-1.18080918719612
 10
0.7414829881083733
 20
-1.18080918719612
 10
0.6797240046994375
 20
-1.24256817060503
 10
0.6464692046534866
 20
-1.324913401272751
 10
0.6464692046534866
 20
-1.412009369439753
 10
0.6464692046534866
 20
-1.499105337606731
 10
0.6797240046994375
 20
-1.581450568274451
 10
0.7414829881083733
 20
-1.643209551683438
 10
0.7414829881083733
 20
-1.643209551683438
 10
0.7414829881083733
 20
-1.643209551683438
 10
0.7414829881083733
 20
-1.643209551683438
 10
0.8317460944721359
 20
-1.733472597639042
 10
0.8317460944721359
 20
-1.880744010320667
 10
0.7414829881083733
 20
-1.971007056276272
 10
0.7414829881083733
 20
-1.971007056276272
 10
0.7414829881083733
 20
-1.971007056276272
 10
0.7414829881083733
 20
-1.971007056276272
 10
0.6797240046994375
 20
-2.032765918868967
 10
0.6464692046534866
 20
-2.115111391169219
 10
0.6464692046534866
 20
-2.202207359336196
 10
0.6464692046534866
 20
-2.289303327503199
 10
0.6797240046994375
 20
-2.371648558170945
 10
0.7414829881083733
 20
-2.433407662396146
 10
0.7509843422906215
 20
-2.44290913739466
 10
0.7636528950777625
 20
-2.447659633261385
 10
0.7747377881543495
 20
-2.447659633261385
 10
0.7858226812308859
 20
-2.447659633261385
 10
0.7984912340180522
 20
-2.442908895762129
 10
0.8079925882003004
 20
-2.433407662396146
 10
0.8143268645938708
 20
-2.427073506818816
 10
0.8190775416849949
 20
-2.419155691530957
 10
0.8206610805793085
 20
-2.411237876243022
 10
0.922009140427791
 20
-2.503084581909257
 10
1.078781846883481
 20
-2.499917504120604
 10
1.176962708127045
 20
-2.401736401244509
 10
1.176962708127045
 20
-2.401736401244509
 10
0.8111596659889528
 20
-2.035933238290151
 10
0.8111596659889528
 20
-2.035933238290151
 10
0.936261352925587
 20
-1.910831853394206
 10
0.936261352925587
 20
-1.704968535092348
 10
0.8095763083190124
 20
-1.578283490485824
 97
        0
 97
        0
 75
     2
 76
     1
 98
        0
  0
SPLINE
  5
56
330
41
100
AcDbEntity
  8
Layer 1
370
     0
100
AcDbSpline
210
0.0
220
0.0
230
1.0
 70
    11
 71
     3
 72
    32
 73
    28
 74
     0
 42
0.0000000001
 43
0.0000000001
 12
1.0
 22
0.0
 32
0.0
 13
1.0
 23
0.0
 33
0.0
 40
0.0
 40
0.0
 40
0.0
 40
0.0
 40
1.0
 40
1.0
 40
1.0
 40
2.0
 40
2.0
 40
2.0
 40
3.0
 40
3.0
 40
3.0
 40
4.0
 40
4.0
 40
4.0
 40
5.0
 40
5.0
 40
5.0
 40
6.0
 40
6.0
 40
6.0
 40
7.0
 40
7.0
 40
7.0
 40
8.0
 40
8.0
 40
8.0
 40
9.0
 40
9.0
 40
9.0
 40
9.0
 10
2.264870721991605
 20
-1.345499769347826
 30
0.0
 10
2.351966690158583
 20
-1.432595737514829
 30
0.0
 10
2.494487365340976
 20
-1.432595737514829
 30
0.0
 10
2.581583333507953
 20
-1.345499769347826
 30
0.0
 10
2.589501148795837
 20
-1.337581954059917
 30
0.0
 10
2.597418964083772
 20
-1.328080599877694
 30
0.0
 10
2.603753119661077
 20
-1.318579245695446
 30
0.0
 10
2.603753119661077
 20
-1.318579245695446
 30
0.0
 10
3.191254869044315
 20
-1.906081115894974
 30
0.0
 10
3.191254869044315
 20
-1.906081115894974
 30
0.0
 10
3.210257577408811
 20
-1.92508382425942
 30
0.0
 10
3.240345420482349
 20
-1.92508382425942
 30
0.0
 10
3.257764469136241
 20
-1.906081115894974
 30
0.0
 10
3.275183517790108
 20
-1.887078407530478
 30
0.0
 10
3.276767177500687
 20
-1.856990564456914
 30
0.0
 10
3.257764469136241
 20
-1.839571515803047
 30
0.0
 10
3.257764469136241
 20
-1.839571515803047
 30
0.0
 10
2.643341954468092
 20
-1.225149001134898
 30
0.0
 10
2.643341954468092
 20
-1.225149001134898
 30
0.0
 10
2.654426847544603
 20
-1.157055741332366
 30
0.0
 10
2.633840479469528
 20
-1.084211864846869
 30
0.0
 10
2.581583091875397
 20
-1.030370696725842
 30
0.0
 10
2.494487123708394
 20
-0.943274728558865
 30
0.0
 10
2.351966448526102
 20
-0.943274728558865
 30
0.0
 10
2.264870480359074
 20
-1.030370696725842
 30
0.0
 10
2.177774753824628
 20
-1.115883125998506
 30
0.0
 10
2.177774753824628
 20
-1.258403801180849
 30
0.0
 10
2.264870721991605
 20
-1.345499769347826
 30
0.0
  0
SPLINE
  5
57
330
41
100
AcDbEntity
  8
Layer 1
370
     0
100
AcDbSpline
210
0.0
220
0.0
230
1.0
 70
    11
 71
     3
 72
    23
 73
    19
 74
     0
 42
0.0000000001
 43
0.0000000001
 12
1.0
 22
0.0
 32
0.0
 13
1.0
 23
0.0
 33
0.0
 40
0.0
 40
0.0
 40
0.0
 40
0.0
 40
1.0
 40
1.0
 40
1.0
 40
2.0
 40
2.0
 40
2.0
 40
3.0
 40
3.0
 40
3.0
 40
4.0
 40
4.0
 40
4.0
 40
5.0
 40
5.0
 40
5.0
 40
6.0
 40
6.0
 40
6.0
 40
6.0
 10
2.408975056884603
 20
-1.101631034317026
 30
0.0
 10
2.408975056884603
 20
-1.101631034317026
 30
0.0
 10
2.508739577838722
 20
-1.20139555527117
 30
0.0
 10
2.508739577838722
 20
-1.20139555527117
 30
0.0
 10
2.527742286203218
 20
-1.220398263635641
 30
0.0
 10
2.527742286203218
 20
-1.25048598589294
 30
0.0
 10
2.508739577838722
 20
-1.267905155363097
 30
0.0
 10
2.489736869474225
 20
-1.286907863727543
 30
0.0
 10
2.459649026400636
 20
-1.286907863727543
 30
0.0
 10
2.442229977746794
 20
-1.267905155363097
 30
0.0
 10
2.442229977746794
 20
-1.267905155363097
 30
0.0
 10
2.342465456792651
 20
-1.168140634408928
 30
0.0
 10
2.342465456792651
 20
-1.168140634408928
 30
0.0
 10
2.32346274842818
 20
-1.149137926044457
 30
0.0
 10
2.32346274842818
 20
-1.119050203787184
 30
0.0
 10
2.342465456792651
 20
-1.101631034317026
 30
0.0
 10
2.359884505446517
 20
-1.082628325952555
 30
0.0
 10
2.389972348520132
 20
-1.082628325952555
 30
0.0
 10
2.408975056884603
 20
-1.101631034317026
 30
0.0
  0
HATCH
  5
58
330
41
100
AcDbEntity
  8
Layer 1
 62
     7
420
 16777215
100
AcDbHatch
 10
0.0
 20
0.0
 30
0.0
210
0.0
220
0.0
230
1.0
  2
SOLID
 70
     1
 71
     0
 91
        2
 92
        1
 93
        1
 72
     4
 94
        3
 73
     0
 74
     1
 95
       32
 96
       28
 40
0.0
 40
0.0
 40
0.0
 40
0.0
 40
1.0
 40
1.0
 40
1.0
 40
2.0
 40
2.0
 40
2.0
 40
3.0
 40
3.0
 40
3.0
 40
4.0
 40
4.0
 40
4.0
 40
5.0
 40
5.0
 40
5.0
 40
6.0
 40
6.0
 40
6.0
 40
7.0
 40
7.0
 40
7.0
 40
8.0
 40
8.0
 40
8.0
 40
9.0
 40
9.0
 40
9.0
 40
9.0
 10
2.264870721991605
 20
-1.345499769347826
 10
2.351966690158583
 20
-1.432595737514829
 10
2.494487365340976
 20
-1.432595737514829
 10
2.581583333507953
 20
-1.345499769347826
 10
2.589501148795837
 20
-1.337581954059917
 10
2.597418964083772
 20
-1.328080599877694
 10
2.603753119661077
 20
-1.318579245695446
 10
2.603753119661077
 20
-1.318579245695446
 10
3.191254869044315
 20
-1.906081115894974
 10
3.191254869044315
 20
-1.906081115894974
 10
3.210257577408811
 20
-1.92508382425942
 10
3.240345420482349
 20
-1.92508382425942
 10
3.257764469136241
 20
-1.906081115894974
 10
3.275183517790108
 20
-1.887078407530478
 10
3.276767177500687
 20
-1.856990564456914
 10
3.257764469136241
 20
-1.839571515803047
 10
3.257764469136241
 20
-1.839571515803047
 10
2.643341954468092
 20
-1.225149001134898
 10
2.643341954468092
 20
-1.225149001134898
 10
2.654426847544603
 20
-1.157055741332366
 10
2.633840479469528
 20
-1.084211864846869
 10
2.581583091875397
 20
-1.030370696725842
 10
2.494487123708394
 20
-0.943274728558865
 10
2.351966448526102
 20
-0.943274728558865
 10
2.264870480359074
 20
-1.030370696725842
 10
2.177774753824628
 20
-1.115883125998506
 10
2.177774753824628
 20
-1.258403801180849
 10
2.264870721991605
 20
-1.345499769347826
 97
        0
 97
        0
 92
        1
 93
        1
 72
     4
 94
        3
 73
     0
 74
     1
 95
       23
 96
       19
 40
0.0
 40
0.0
 40
0.0
 40
0.0
 40
1.0
 40
1.0
 40
1.0
 40
2.0
 40
2.0
 40
2.0
 40
3.0
 40
3.0
 40
3.0
 40
4.0
 40
4.0
 40
4.0
 40
5.0
 40
5.0
 40
5.0
 40
6.0
 40
6.0
 40
6.0
 40
6.0
 10
2.408975056884603
 20
-1.101631034317026
 10
2.408975056884603
 20
-1.101631034317026
 10
2.508739577838722
 20
-1.20139555527117
 10
2.508739577838722
 20
-1.20139555527117
 10
2.527742286203218
 20
-1.220398263635641
 10
2.527742286203218
 20
-1.25048598589294
 10
2.508739577838722
 20
-1.267905155363097
 10
2.489736869474225
 20
-1.286907863727543
 10
2.459649026400636
 20
-1.286907863727543
 10
2.442229977746794
 20
-1.267905155363097
 10
2.442229977746794
 20
-1.267905155363097
 10
2.342465456792651
 20
-1.168140634408928
 10
2.342465456792651
 20
-1.168140634408928
 10
2.32346274842818
 20
-1.149137926044457
 10
2.32346274842818
 20
-1.119050203787184
 10
2.342465456792651
 20
-1.101631034317026
 10
2.359884505446517
 20
-1.082628325952555
 10
2.389972348520132
 20
-1.082628325952555
 10
2.408975056884603
 20
-1.101631034317026
 97
        0
 97
        0
 75
     2
 76
     1
 98
        0
  0
ENDBLK
  5
44
330
41
100
AcDbEntity
  8
0
100
AcDbBlockEnd
  0
ENDSEC
  0
SECTION
  2
ENTITIES
  0
INSERT
  5
42
330
1F
100
AcDbEntity
  8
Layer 1
100
AcDbBlockReference
  2
block 2
 10
0.0
 20
0.0
 30
0.0
  0
ENDSEC
  0
SECTION
  2
OBJECTS
  0
DICTIONARY
  5
C
330
0
100
AcDbDictionary
281
     1
  3
ACAD_GROUP
350
D
  3
ACAD_LAYOUT
350
1A
  3
ACAD_MATERIAL
350
3B
  3
ACAD_MLEADERSTYLE
350
5A
  3
ACAD_MLINESTYLE
350
17
  3
ACAD_PLOTSETTINGS
350
19
  3
ACAD_PLOTSTYLENAME
350
E
  3
ACAD_TABLESTYLE
350
59
  3
ACAD_VISUALSTYLE
350
2A
  0
SUN
  5
3F
330
29
100
AcDbSun
 90
        1
290
     0
 63
     7
421
 16777215
 40
1.0
291
     1
 91
  2455826
 92
 54000000
292
     0
 70
     2
 71
   256
280
     1
  0
DICTIONARY
  5
D
102
{ACAD_REACTORS
330
C
102
}
330
C
100
AcDbDictionary
281
     1
  0
DICTIONARY
  5
1A
102
{ACAD_REACTORS
330
C
102
}
330
C
100
AcDbDictionary
281
     1
  3
Layout1
350
1E
  3
Layout2
350
26
  3
Model
350
22
  0
DICTIONARY
  5
3B
102
{ACAD_REACTORS
330
C
102
}
330
C
100
AcDbDictionary
281
     1
  3
ByBlock
350
3D
  3
ByLayer
350
3C
  3
Global
350
3E
  0
DICTIONARY
  5
5A
102
{ACAD_REACTORS
330
C
102
}
330
C
100
AcDbDictionary
281
     1
  0
DICTIONARY
  5
17
102
{ACAD_REACTORS
330
C
102
}
330
C
100
AcDbDictionary
281
     1
  3
Standard
350
18
  0
DICTIONARY
  5
19
102
{ACAD_REACTORS
330
C
102
}
330
C
100
AcDbDictionary
281
     1
  0
ACDBDICTIONARYWDFLT
  5
E
102
{ACAD_REACTORS
330
C
102
}
330
C
100
AcDbDictionary
281
     1
  3
Normal
350
F
100
AcDbDictionaryWithDefault
340
F
  0
DICTIONARY
  5
59
102
{ACAD_REACTORS
330
C
102
}
330
C
100
AcDbDictionary
281
     1
  0
DICTIONARY
  5
2A
102
{ACAD_REACTORS
330
C
102
}
330
C
100
AcDbDictionary
281
     1
  3
2dWireframe
350
2F
  3
3D Hidden
350
31
  3
3dWireframe
350
30
  3
Basic
350
32
  3
Brighten
350
36
  3
ColorChange
350
3A
  3
Conceptual
350
34
  3
Dim
350
35
  3
Facepattern
350
39
  3
Flat
350
2B
  3
FlatWithEdges
350
2C
  3
Gouraud
350
2D
  3
GouraudWithEdges
350
2E
  3
Linepattern
350
38
  3
Realistic
350
33
  3
Thicken
350
37
  0
LAYOUT
  5
1E
102
{ACAD_REACTORS
330
1A
102
}
330
1A
100
AcDbPlotSettings
  1

  2
none_device
  4

  6

 40
0.0
 41
0.0
 42
0.0
 43
0.0
 44
0.0
 45
0.0
 46
0.0
 47
0.0
 48
0.0
 49
0.0
140
0.0
141
0.0
142
1.0
143
1.0
 70
   688
 72
     0
 73
     0
 74
     5
  7

 75
    16
 76
     0
 77
     2
 78
   300
147
1.0
148
0.0
149
0.0
100
AcDbLayout
  1
Layout1
 70
     1
 71
     1
 10
0.0
 20
0.0
 11
12.0
 21
9.0
 12
0.0
 22
0.0
 32
0.0
 14
1.000000000000000E+20
 24
1.000000000000000E+20
 34
1.000000000000000E+20
 15
-1.000000000000000E+20
 25
-1.000000000000000E+20
 35
-1.000000000000000E+20
146
0.0
 13
0.0
 23
0.0
 33
0.0
 16
1.0
 26
0.0
 36
0.0
 17
0.0
 27
1.0
 37
0.0
 76
     0
330
1B
  0
LAYOUT
  5
26
102
{ACAD_REACTORS
330
1A
102
}
330
1A
100
AcDbPlotSettings
  1

  2
none_device
  4

  6

 40
0.0
 41
0.0
 42
0.0
 43
0.0
 44
0.0
 45
0.0
 46
0.0
 47
0.0
 48
0.0
 49
0.0
140
0.0
141
0.0
142
1.0
143
1.0
 70
   688
 72
     0
 73
     0
 74
     5
  7

 75
    16
 76
     0
 77
     2
 78
   300
147
1.0
148
0.0
149
0.0
100
AcDbLayout
  1
Layout2
 70
     1
 71
     2
 10
0.0
 20
0.0
 11
0.0
 21
0.0
 12
0.0
 22
0.0
 32
0.0
 14
0.0
 24
0.0
 34
0.0
 15
0.0
 25
0.0
 35
0.0
146
0.0
 13
0.0
 23
0.0
 33
0.0
 16
1.0
 26
0.0
 36
0.0
 17
0.0
 27
1.0
 37
0.0
 76
     0
330
23
  0
LAYOUT
  5
22
102
{ACAD_REACTORS
330
1A
102
}
330
1A
100
AcDbPlotSettings
  1

  2
none_device
  4

  6

 40
0.0
 41
0.0
 42
0.0
 43
0.0
 44
0.0
 45
0.0
 46
0.0
 47
0.0
 48
0.0
 49
0.0
140
0.0
141
0.0
142
1.0
143
1.0
 70
  1712
 72
     0
 73
     0
 74
     0
  7

 75
     0
 76
     0
 77
     2
 78
   300
147
1.0
148
0.0
149
0.0
100
AcDbLayout
  1
Model
 70
     1
 71
     0
 10
0.0
 20
0.0
 11
12.0
 21
9.0
 12
0.0
 22
0.0
 32
0.0
 14
1.000000000000000E+20
 24
1.000000000000000E+20
 34
1.000000000000000E+20
 15
-1.000000000000000E+20
 25
-1.000000000000000E+20
 35
-1.000000000000000E+20
146
0.0
 13
0.0
 23
0.0
 33
0.0
 16
1.0
 26
0.0
 36
0.0
 17
0.0
 27
1.0
 37
0.0
 76
     0
330
1F
331
29
  0
MATERIAL
  5
3D
102
{ACAD_REACTORS
330
3B
102
}
330
3B
100
AcDbMaterial
  1
ByBlock
 72
     1
 94
      127
  0
MATERIAL
  5
3C
102
{ACAD_REACTORS
330
3B
102
}
330
3B
100
AcDbMaterial
  1
ByLayer
 72
     1
 94
      127
  0
MATERIAL
  5
3E
102
{ACAD_REACTORS
330
3B
102
}
330
3B
100
AcDbMaterial
  1
Global
 72
     1
 94
      127
  0
MLINESTYLE
  5
18
102
{ACAD_REACTORS
330
17
102
}
330
17
100
AcDbMlineStyle
  2
Standard
 70
     0
  3

 62
   256
 51
90.0
 52
90.0
 71
     2
 49
0.5
 62
   256
  6
BYLAYER
 49
-0.5
 62
   256
  6
BYLAYER
  0
ACDBPLACEHOLDER
  5
F
102
{ACAD_REACTORS
330
E
102
}
330
E
  0
VISUALSTYLE
  5
2F
102
{ACAD_REACTORS
330
2A
102
}
330
2A
100
AcDbVisualStyle
  2
2dWireframe
 70
     4
177
     2
291
     0
 71
     0
176
     1
 72
     2
176
     1
 73
     0
176
     1
 90
        0
176
     1
 40
-0.6
176
     1
 41
-30.0
176
     1
 62
     5
 63
     7
421
 16777215
176
     1
 74
     1
176
     1
 91
        4
176
     1
 64
     7
176
     1
 65
   257
176
     1
 75
     1
176
     1
175
     1
176
     1
 42
1.0
176
     1
 92
        0
176
     1
 66
   257
176
     1
 43
1.0
176
     1
 76
     1
176
     1
 77
     6
176
     1
 78
     2
176
     1
 67
     7
176
     1
 79
     5
176
     1
170
     0
176
     1
171
     0
176
     1
290
     0
176
     1
 93
        1
176
     1
 44
0.0
176
     1
173
     0
176
     1
  0
VISUALSTYLE
  5
31
102
{ACAD_REACTORS
330
2A
102
}
330
2A
100
AcDbVisualStyle
  2
3D Hidden
 70
     6
177
     2
291
     0
 71
     1
176
     1
 72
     2
176
     1
 73
     2
176
     1
 90
        0
176
     1
 40
-0.6
176
     1
 41
-30.0
176
     1
 62
     5
 63
     7
421
 16777215
176
     1
 74
     2
176
     1
 91
        2
176
     1
 64
     7
176
     1
 65
   257
176
     1
 75
     2
176
     1
175
     1
176
     1
 42
40.0
176
     1
 92
        0
176
     1
 66
   257
176
     1
 43
1.0
176
     1
 76
     1
176
     1
 77
     6
176
     1
 78
     2
176
     1
 67
     7
176
     1
 79
     3
176
     1
170
     0
176
     1
171
     0
176
     1
290
     0
176
     1
 93
        1
176
     1
 44
0.0
176
     1
173
     0
176
     1
  0
VISUALSTYLE
  5
30
102
{ACAD_REACTORS
330
2A
102
}
330
2A
100
AcDbVisualStyle
  2
3dWireframe
 70
     5
177
     2
291
     0
 71
     0
176
     1
 72
     2
176
     1
 73
     0
176
     1
 90
        0
176
     1
 40
-0.6
176
     1
 41
-30.0
176
     1
 62
     5
 63
     7
421
 16777215
176
     1
 74
     1
176
     1
 91
        4
176
     1
 64
     7
176
     1
 65
   257
176
     1
 75
     1
176
     1
175
     1
176
     1
 42
1.0
176
     1
 92
        0
176
     1
 66
   257
176
     1
 43
1.0
176
     1
 76
     1
176
     1
 77
     6
176
     1
 78
     2
176
     1
 67
     7
176
     1
 79
     5
176
     1
170
     0
176
     1
171
     0
176
     1
290
     0
176
     1
 93
        1
176
     1
 44
0.0
176
     1
173
     0
176
     1
  0
VISUALSTYLE
  5
32
102
{ACAD_REACTORS
330
2A
102
}
330
2A
100
AcDbVisualStyle
  2
Basic
 70
     7
177
     2
291
     1
 71
     1
176
     1
 72
     0
176
     1
 73
     1
176
     1
 90
        0
176
     1
 40
-0.6
176
     1
 41
-30.0
176
     1
 62
     5
 63
     7
421
 16777215
176
     1
 74
     0
176
     1
 91
        4
176
     1
 64
     7
176
     1
 65
   257
176
     1
 75
     1
176
     1
175
     1
176
     1
 42
1.0
176
     1
 92
        8
176
     1
 66
     7
176
     1
 43
1.0
176
     1
 76
     1
176
     1
 77
     6
176
     1
 78
     2
176
     1
 67
     7
176
     1
 79
     5
176
     1
170
     0
176
     1
171
     0
176
     1
290
     0
176
     1
 93
        1
176
     1
 44
0.0
176
     1
173
     0
176
     1
  0
VISUALSTYLE
  5
36
102
{ACAD_REACTORS
330
2A
102
}
330
2A
100
AcDbVisualStyle
  2
Brighten
 70
    12
177
     2
291
     1
 71
     2
176
     1
 72
     2
176
     1
 73
     0
176
     1
 90
        0
176
     1
 40
-0.6
176
     1
 41
-30.0
176
     1
 62
     5
 63
     7
421
 16777215
176
     1
 74
     1
176
     1
 91
        4
176
     1
 64
     7
176
     1
 65
   257
176
     1
 75
     1
176
     1
175
     1
176
     1
 42
1.0
176
     1
 92
        8
176
     1
 66
     7
176
     1
 43
1.0
176
     1
 76
     1
176
     1
 77
     6
176
     1
 78
     2
176
     1
 67
     7
176
     1
 79
     5
176
     1
170
     0
176
     1
171
     0
176
     1
290
     0
176
     1
 93
        1
176
     1
 44
50.0
176
     1
173
     0
176
     1
  0
VISUALSTYLE
  5
3A
102
{ACAD_REACTORS
330
2A
102
}
330
2A
100
AcDbVisualStyle
  2
ColorChange
 70
    16
177
     2
291
     1
 71
     2
176
     1
 72
     2
176
     1
 73
     3
176
     1
 90
        0
176
     1
 40
-0.6
176
     1
 41
-30.0
176
     1
 62
     5
 63
     8
421
  8421504
176
     1
 74
     1
176
     1
 91
        4
176
     1
 64
     7
176
     1
 65
   257
176
     1
 75
     1
176
     1
175
     1
176
     1
 42
1.0
176
     1
 92
        8
176
     1
 66
     8
424
  8421504
176
     1
 43
1.0
176
     1
 76
     1
176
     1
 77
     6
176
     1
 78
     2
176
     1
 67
     7
176
     1
 79
     5
176
     1
170
     0
176
     1
171
     0
176
     1
290
     0
176
     1
 93
        1
176
     1
 44
0.0
176
     1
173
     0
176
     1
  0
VISUALSTYLE
  5
34
102
{ACAD_REACTORS
330
2A
102
}
330
2A
100
AcDbVisualStyle
  2
Conceptual
 70
     9
177
     2
291
     0
 71
     3
176
     1
 72
     2
176
     1
 73
     0
176
     1
 90
        0
176
     1
 40
-0.6
176
     1
 41
-30.0
176
     1
 62
     5
 63
     7
421
 16777215
176
     1
 74
     2
176
     1
 91
        2
176
     1
 64
     7
176
     1
 65
   257
176
     1
 75
     1
176
     1
175
     1
176
     1
 42
40.0
176
     1
 92
        8
176
     1
 66
     7
176
     1
 43
1.0
176
     1
 76
     1
176
     1
 77
     6
176
     1
 78
     2
176
     1
 67
     7
176
     1
 79
     3
176
     1
170
     0
176
     1
171
     0
176
     1
290
     0
176
     1
 93
        1
176
     1
 44
0.0
176
     1
173
     0
176
     1
  0
VISUALSTYLE
  5
35
102
{ACAD_REACTORS
330
2A
102
}
330
2A
100
AcDbVisualStyle
  2
Dim
 70
    11
177
     2
291
     1
 71
     2
176
     1
 72
     2
176
     1
 73
     0
176
     1
 90
        0
176
     1
 40
-0.6
176
     1
 41
-30.0
176
     1
 62
     5
 63
     7
421
 16777215
176
     1
 74
     1
176
     1
 91
        4
176
     1
 64
     7
176
     1
 65
   257
176
     1
 75
     1
176
     1
175
     1
176
     1
 42
1.0
176
     1
 92
        8
176
     1
 66
     7
176
     1
 43
1.0
176
     1
 76
     1
176
     1
 77
     6
176
     1
 78
     2
176
     1
 67
     7
176
     1
 79
     5
176
     1
170
     0
176
     1
171
     0
176
     1
290
     0
176
     1
 93
        1
176
     1
 44
-50.0
176
     1
173
     0
176
     1
  0
VISUALSTYLE
  5
39
102
{ACAD_REACTORS
330
2A
102
}
330
2A
100
AcDbVisualStyle
  2
Facepattern
 70
    15
177
     2
291
     1
 71
     2
176
     1
 72
     2
176
     1
 73
     0
176
     1
 90
        0
176
     1
 40
-0.6
176
     1
 41
-30.0
176
     1
 62
     5
 63
     7
421
 16777215
176
     1
 74
     1
176
     1
 91
        4
176
     1
 64
     7
176
     1
 65
   257
176
     1
 75
     1
176
     1
175
     1
176
     1
 42
1.0
176
     1
 92
        8
176
     1
 66
     7
176
     1
 43
1.0
176
     1
 76
     1
176
     1
 77
     6
176
     1
 78
     2
176
     1
 67
     7
176
     1
 79
     5
176
     1
170
     0
176
     1
171
     0
176
     1
290
     0
176
     1
 93
        1
176
     1
 44
0.0
176
     1
173
     0
176
     1
  0
VISUALSTYLE
  5
2B
102
{ACAD_REACTORS
330
2A
102
}
330
2A
100
AcDbVisualStyle
  2
Flat
 70
     0
177
     2
291
     1
 71
     2
176
     1
 72
     1
176
     1
 73
     1
176
     1
 90
        2
176
     1
 40
-0.6
176
     1
 41
30.0
176
     1
 62
     5
 63
     7
421
 16777215
176
     1
 74
     0
176
     1
 91
        4
176
     1
 64
     7
176
     1
 65
   257
176
     1
 75
     1
176
     1
175
     1
176
     1
 42
1.0
176
     1
 92
        8
176
     1
 66
     7
176
     1
 43
1.0
176
     1
 76
     1
176
     1
 77
     6
176
     1
 78
     2
176
     1
 67
     7
176
     1
 79
     5
176
     1
170
     0
176
     1
171
     0
176
     1
290
     0
176
     1
 93
       13
176
     1
 44
0.0
176
     1
173
     0
176
     1
  0
VISUALSTYLE
  5
2C
102
{ACAD_REACTORS
330
2A
102
}
330
2A
100
AcDbVisualStyle
  2
FlatWithEdges
 70
     1
177
     2
291
     1
 71
     2
176
     1
 72
     1
176
     1
 73
     1
176
     1
 90
        2
176
     1
 40
-0.6
176
     1
 41
30.0
176
     1
 62
     5
 63
     7
421
 16777215
176
     1
 74
     1
176
     1
 91
        4
176
     1
 64
     7
176
     1
 65
   257
176
     1
 75
     1
176
     1
175
     1
176
     1
 42
1.0
176
     1
 92
        0
176
     1
 66
   257
176
     1
 43
1.0
176
     1
 76
     1
176
     1
 77
     6
176
     1
 78
     2
176
     1
 67
     7
176
     1
 79
     5
176
     1
170
     0
176
     1
171
     0
176
     1
290
     0
176
     1
 93
       13
176
     1
 44
0.0
176
     1
173
     0
176
     1
  0
VISUALSTYLE
  5
2D
102
{ACAD_REACTORS
330
2A
102
}
330
2A
100
AcDbVisualStyle
  2
Gouraud
 70
     2
177
     2
291
     1
 71
     2
176
     1
 72
     2
176
     1
 73
     1
176
     1
 90
        2
176
     1
 40
-0.6
176
     1
 41
30.0
176
     1
 62
     5
 63
     7
421
 16777215
176
     1
 74
     0
176
     1
 91
        4
176
     1
 64
     7
176
     1
 65
   257
176
     1
 75
     1
176
     1
175
     1
176
     1
 42
1.0
176
     1
 92
        0
176
     1
 66
     7
176
     1
 43
1.0
176
     1
 76
     1
176
     1
 77
     6
176
     1
 78
     2
176
     1
 67
     7
176
     1
 79
     5
176
     1
170
     0
176
     1
171
     0
176
     1
290
     0
176
     1
 93
       13
176
     1
 44
0.0
176
     1
173
     0
176
     1
  0
VISUALSTYLE
  5
2E
102
{ACAD_REACTORS
330
2A
102
}
330
2A
100
AcDbVisualStyle
  2
GouraudWithEdges
 70
     3
177
     2
291
     1
 71
     2
176
     1
 72
     2
176
     1
 73
     1
176
     1
 90
        2
176
     1
 40
-0.6
176
     1
 41
30.0
176
     1
 62
     5
 63
     7
421
 16777215
176
     1
 74
     1
176
     1
 91
        4
176
     1
 64
     7
176
     1
 65
   257
176
     1
 75
     1
176
     1
175
     1
176
     1
 42
1.0
176
     1
 92
        0
176
     1
 66
   257
176
     1
 43
1.0
176
     1
 76
     1
176
     1
 77
     6
176
     1
 78
     2
176
     1
 67
     7
176
     1
 79
     5
176
     1
170
     0
176
     1
171
     0
176
     1
290
     0
176
     1
 93
       13
176
     1
 44
0.0
176
     1
173
     0
176
     1
  0
VISUALSTYLE
  5
38
102
{ACAD_REACTORS
330
2A
102
}
330
2A
100
AcDbVisualStyle
  2
Linepattern
 70
    14
177
     2
291
     1
 71
     2
176
     1
 72
     2
176
     1
 73
     0
176
     1
 90
        0
176
     1
 40
-0.6
176
     1
 41
-30.0
176
     1
 62
     5
 63
     7
421
 16777215
176
     1
 74
     1
176
     1
 91
        4
176
     1
 64
     7
176
     1
 65
   257
176
     1
 75
     7
176
     1
175
     7
176
     1
 42
1.0
176
     1
 92
        8
176
     1
 66
     7
176
     1
 43
1.0
176
     1
 76
     1
176
     1
 77
     6
176
     1
 78
     2
176
     1
 67
     7
176
     1
 79
     5
176
     1
170
     0
176
     1
171
     0
176
     1
290
     0
176
     1
 93
        1
176
     1
 44
0.0
176
     1
173
     0
176
     1
  0
VISUALSTYLE
  5
33
102
{ACAD_REACTORS
330
2A
102
}
330
2A
100
AcDbVisualStyle
  2
Realistic
 70
     8
177
     2
291
     0
 71
     2
176
     1
 72
     2
176
     1
 73
     0
176
     1
 90
        0
176
     1
 40
-0.6
176
     1
 41
-30.0
176
     1
 62
     5
 63
     7
421
 16777215
176
     1
 74
     1
176
     1
 91
        0
176
     1
 64
     7
176
     1
 65
   257
176
     1
 75
     1
176
     1
175
     1
176
     1
 42
1.0
176
     1
 92
        8
176
     1
 66
     8
424
  7895160
176
     1
 43
1.0
176
     1
 76
     1
176
     1
 77
     6
176
     1
 78
     2
176
     1
 67
     7
176
     1
 79
     5
176
     1
170
     0
176
     1
171
     0
176
     1
290
     0
176
     1
 93
       13
176
     1
 44
0.0
176
     1
173
     0
176
     1
  0
VISUALSTYLE
  5
37
102
{ACAD_REACTORS
330
2A
102
}
330
2A
100
AcDbVisualStyle
  2
Thicken
 70
    13
177
     2
291
     1
 71
     2
176
     1
 72
     2
176
     1
 73
     0
176
     1
 90
        0
176
     1
 40
-0.6
176
     1
 41
-30.0
176
     1
 62
     5
 63
     7
421
 16777215
176
     1
 74
     1
176
     1
 91
        4
176
     1
 64
     7
176
     1
 65
   257
176
     1
 75
     1
176
     1
175
     1
176
     1
 42
1.0
176
     1
 92
       12
176
     1
 66
     7
176
     1
 43
1.0
176
     1
 76
     1
176
     1
 77
     6
176
     1
 78
     2
176
     1
 67
     7
176
     1
 79
     5
176
     1
170
     0
176
     1
171
     0
176
     1
290
     0
176
     1
 93
        1
176
     1
 44
0.0
176
     1
173
     0
176
     1
  0
ENDSEC
  0
EOF
